<svg width="45" height="67" viewBox="0 0 45 67" fill="none" xmlns="http://www.w3.org/2000/svg">
<path d="M7.07 53.05C12.83 48.07 17.36 43.99 20.66 40.81C24.02 37.57 26.81 34.21 29.03 30.73C31.25 27.25 32.36 23.77 32.36 20.29C32.36 16.69 31.49 13.87 29.75 11.83C28.07 9.79 25.4 8.77 21.74 8.77C18.2 8.77 15.44 9.91 13.46 12.19C11.54 14.41 10.52 17.41 10.4 21.19H0.5C0.68 14.35 2.72 9.13 6.62 5.53C10.58 1.87 15.59 0.0399984 21.65 0.0399984C28.19 0.0399984 33.29 1.84 36.95 5.44C40.67 9.04 42.53 13.84 42.53 19.84C42.53 24.16 41.42 28.33 39.2 32.35C37.04 36.31 34.43 39.88 31.37 43.06C28.37 46.18 24.53 49.81 19.85 53.95L15.8 57.55H44.33V66.1H0.59V58.63L7.07 53.05Z" fill="url(#paint0_linear_154_86)"/>
<defs>
<linearGradient id="paint0_linear_154_86" x1="46.3267" y1="-20.2791" x2="-8.06825" y2="-4.5375" gradientUnits="userSpaceOnUse">
<stop stop-color="#4945F8"/>
<stop offset="1" stop-color="#9030F4"/>
</linearGradient>
</defs>
</svg>
