<svg width="45" height="69" viewBox="0 0 45 69" fill="none" xmlns="http://www.w3.org/2000/svg">
<path d="M1.22 18.59C1.58 13.01 3.71 8.66 7.61 5.54C11.57 2.42 16.61 0.859995 22.73 0.859995C26.93 0.859995 30.56 1.61 33.62 3.11C36.68 4.61 38.99 6.65 40.55 9.22999C42.11 11.81 42.89 14.72 42.89 17.96C42.89 21.68 41.9 24.86 39.92 27.5C37.94 30.14 35.57 31.91 32.81 32.81V33.17C36.35 34.25 39.11 36.23 41.09 39.11C43.07 41.93 44.06 45.56 44.06 50C44.06 53.54 43.25 56.69 41.63 59.45C40.01 62.21 37.61 64.4 34.43 66.02C31.25 67.58 27.44 68.36 23 68.36C16.52 68.36 11.18 66.71 6.98 63.41C2.84 60.05 0.62 55.25 0.32 49.01H10.22C10.46 52.19 11.69 54.8 13.91 56.84C16.13 58.82 19.13 59.81 22.91 59.81C26.57 59.81 29.39 58.82 31.37 56.84C33.35 54.8 34.34 52.19 34.34 49.01C34.34 44.81 32.99 41.84 30.29 40.1C27.65 38.3 23.57 37.4 18.05 37.4H15.71V28.94H18.14C23 28.88 26.69 28.07 29.21 26.51C31.79 24.95 33.08 22.49 33.08 19.13C33.08 16.25 32.15 13.97 30.29 12.29C28.43 10.55 25.79 9.68 22.37 9.68C19.01 9.68 16.4 10.55 14.54 12.29C12.68 13.97 11.57 16.07 11.21 18.59H1.22Z" fill="url(#paint0_linear_154_87)"/>
<defs>
<linearGradient id="paint0_linear_154_87" x1="48.2624" y1="-19.2791" x2="-7.88455" y2="-2.40556" gradientUnits="userSpaceOnUse">
<stop stop-color="#4945F8"/>
<stop offset="1" stop-color="#9030F4"/>
</linearGradient>
</defs>
</svg>
