<svg width="98" height="23" viewBox="0 0 98 23" fill="none" xmlns="http://www.w3.org/2000/svg">
<path d="M10.868 13.876H4.466L3.366 17H0.748L6.226 1.688H9.13L14.608 17H11.968L10.868 13.876ZM10.164 11.83L7.678 4.724L5.17 11.83H10.164ZM23.9858 4.68C24.9392 4.68 25.7898 4.878 26.5378 5.274C27.3005 5.67 27.8945 6.25667 28.3198 7.034C28.7452 7.81133 28.9578 8.75 28.9578 9.85V17H26.4718V10.224C26.4718 9.13867 26.2005 8.31 25.6578 7.738C25.1152 7.15133 24.3745 6.858 23.4358 6.858C22.4972 6.858 21.7492 7.15133 21.1918 7.738C20.6492 8.31 20.3778 9.13867 20.3778 10.224V17H17.8698V4.878H20.3778V6.264C20.7885 5.76533 21.3092 5.37667 21.9398 5.098C22.5852 4.81933 23.2672 4.68 23.9858 4.68ZM32.201 10.884C32.201 9.66667 32.4503 8.58867 32.949 7.65C33.4623 6.71133 34.1516 5.98533 35.017 5.472C35.897 4.944 36.865 4.68 37.921 4.68C38.8743 4.68 39.703 4.87067 40.407 5.252C41.1256 5.61867 41.6976 6.08067 42.123 6.638V4.878H44.653V17H42.123V15.196C41.6976 15.768 41.1183 16.2447 40.385 16.626C39.6516 17.0073 38.8156 17.198 37.877 17.198C36.8356 17.198 35.8823 16.934 35.017 16.406C34.1516 15.8633 33.4623 15.1153 32.949 14.162C32.4503 13.194 32.201 12.1013 32.201 10.884ZM42.123 10.928C42.123 10.092 41.947 9.366 41.595 8.75C41.2576 8.134 40.8103 7.66467 40.253 7.342C39.6956 7.01933 39.0943 6.858 38.449 6.858C37.8036 6.858 37.2023 7.01933 36.645 7.342C36.0876 7.65 35.633 8.112 35.281 8.728C34.9436 9.32933 34.775 10.048 34.775 10.884C34.775 11.72 34.9436 12.4533 35.281 13.084C35.633 13.7147 36.0876 14.1987 36.645 14.536C37.217 14.8587 37.8183 15.02 38.449 15.02C39.0943 15.02 39.6956 14.8587 40.253 14.536C40.8103 14.2133 41.2576 13.744 41.595 13.128C41.947 12.4973 42.123 11.764 42.123 10.928ZM51.3351 0.72V17H48.8271V0.72H51.3351ZM66.4199 4.878L58.9839 22.698H56.3879L58.8519 16.802L54.0779 4.878H56.8719L60.2819 14.118L63.8239 4.878H66.4199ZM73.5926 17.198C72.6392 17.198 71.7812 17.0293 71.0186 16.692C70.2706 16.34 69.6766 15.8707 69.2366 15.284C68.7966 14.6827 68.5619 14.0153 68.5326 13.282H71.1286C71.1726 13.7953 71.4146 14.228 71.8546 14.58C72.3092 14.9173 72.8739 15.086 73.5486 15.086C74.2526 15.086 74.7952 14.954 75.1766 14.69C75.5726 14.4113 75.7706 14.0593 75.7706 13.634C75.7706 13.1793 75.5506 12.842 75.1106 12.622C74.6852 12.402 74.0032 12.16 73.0646 11.896C72.1552 11.6467 71.4146 11.4047 70.8426 11.17C70.2706 10.9353 69.7719 10.576 69.3466 10.092C68.9359 9.608 68.7306 8.97 68.7306 8.178C68.7306 7.53267 68.9212 6.946 69.3026 6.418C69.6839 5.87533 70.2266 5.45 70.9306 5.142C71.6492 4.834 72.4706 4.68 73.3946 4.68C74.7732 4.68 75.8806 5.032 76.7166 5.736C77.5672 6.42533 78.0219 7.37133 78.0806 8.574H75.5726C75.5286 8.03133 75.3086 7.59867 74.9126 7.276C74.5166 6.95333 73.9812 6.792 73.3066 6.792C72.6466 6.792 72.1406 6.91667 71.7886 7.166C71.4366 7.41533 71.2606 7.74533 71.2606 8.156C71.2606 8.47867 71.3779 8.75 71.6126 8.97C71.8472 9.19 72.1332 9.366 72.4706 9.498C72.8079 9.61533 73.3066 9.76933 73.9666 9.96C74.8466 10.1947 75.5652 10.4367 76.1226 10.686C76.6946 10.9207 77.1859 11.2727 77.5966 11.742C78.0072 12.2113 78.2199 12.8347 78.2346 13.612C78.2346 14.3013 78.0439 14.9173 77.6626 15.46C77.2812 16.0027 76.7386 16.428 76.0346 16.736C75.3452 17.044 74.5312 17.198 73.5926 17.198ZM83.1005 3.272C82.6459 3.272 82.2645 3.118 81.9565 2.81C81.6485 2.502 81.4945 2.12067 81.4945 1.666C81.4945 1.21133 81.6485 0.829999 81.9565 0.522C82.2645 0.213999 82.6459 0.0599991 83.1005 0.0599991C83.5405 0.0599991 83.9145 0.213999 84.2225 0.522C84.5305 0.829999 84.6845 1.21133 84.6845 1.666C84.6845 2.12067 84.5305 2.502 84.2225 2.81C83.9145 3.118 83.5405 3.272 83.1005 3.272ZM84.3325 4.878V17H81.8245V4.878H84.3325ZM92.9053 17.198C91.952 17.198 91.094 17.0293 90.3313 16.692C89.5833 16.34 88.9893 15.8707 88.5493 15.284C88.1093 14.6827 87.8746 14.0153 87.8453 13.282H90.4413C90.4853 13.7953 90.7273 14.228 91.1673 14.58C91.622 14.9173 92.1866 15.086 92.8613 15.086C93.5653 15.086 94.108 14.954 94.4893 14.69C94.8853 14.4113 95.0833 14.0593 95.0833 13.634C95.0833 13.1793 94.8633 12.842 94.4233 12.622C93.998 12.402 93.316 12.16 92.3773 11.896C91.468 11.6467 90.7273 11.4047 90.1553 11.17C89.5833 10.9353 89.0846 10.576 88.6593 10.092C88.2486 9.608 88.0433 8.97 88.0433 8.178C88.0433 7.53267 88.234 6.946 88.6153 6.418C88.9966 5.87533 89.5393 5.45 90.2433 5.142C90.962 4.834 91.7833 4.68 92.7073 4.68C94.086 4.68 95.1933 5.032 96.0293 5.736C96.88 6.42533 97.3347 7.37133 97.3933 8.574H94.8853C94.8413 8.03133 94.6213 7.59867 94.2253 7.276C93.8293 6.95333 93.294 6.792 92.6193 6.792C91.9593 6.792 91.4533 6.91667 91.1013 7.166C90.7493 7.41533 90.5733 7.74533 90.5733 8.156C90.5733 8.47867 90.6906 8.75 90.9253 8.97C91.16 9.19 91.446 9.366 91.7833 9.498C92.1206 9.61533 92.6193 9.76933 93.2793 9.96C94.1593 10.1947 94.878 10.4367 95.4353 10.686C96.0073 10.9207 96.4986 11.2727 96.9093 11.742C97.32 12.2113 97.5326 12.8347 97.5473 13.612C97.5473 14.3013 97.3567 14.9173 96.9753 15.46C96.594 16.0027 96.0513 16.428 95.3473 16.736C94.658 17.044 93.844 17.198 92.9053 17.198Z" fill="white"/>
</svg>
