<svg width="433" height="119" viewBox="0 0 433 119" fill="none" xmlns="http://www.w3.org/2000/svg">
<rect x="1.47314" y="1.07764" width="430.394" height="116.002" rx="29" fill="#1C1A50" stroke="url(#paint0_linear_51_6558)" stroke-width="2"/>
<path d="M56.0755 55.1818C56.9155 55.1818 57.6622 55.3618 58.3155 55.7218C58.9822 56.0818 59.5022 56.6152 59.8755 57.3218C60.2622 58.0285 60.4555 58.8818 60.4555 59.8818V66.3818H58.1955V60.2218C58.1955 59.2352 57.9488 58.4818 57.4555 57.9618C56.9622 57.4285 56.2888 57.1618 55.4355 57.1618C54.5822 57.1618 53.9022 57.4285 53.3955 57.9618C52.9022 58.4818 52.6555 59.2352 52.6555 60.2218V66.3818H50.3755V51.5818H52.6555V56.6418C53.0422 56.1752 53.5288 55.8152 54.1155 55.5618C54.7155 55.3085 55.3688 55.1818 56.0755 55.1818ZM65.3238 53.9018C64.9104 53.9018 64.5638 53.7618 64.2838 53.4818C64.0038 53.2018 63.8638 52.8552 63.8638 52.4418C63.8638 52.0285 64.0038 51.6818 64.2838 51.4018C64.5638 51.1218 64.9104 50.9818 65.3238 50.9818C65.7238 50.9818 66.0638 51.1218 66.3438 51.4018C66.6238 51.6818 66.7638 52.0285 66.7638 52.4418C66.7638 52.8552 66.6238 53.2018 66.3438 53.4818C66.0638 53.7618 65.7238 53.9018 65.3238 53.9018ZM66.4438 55.3618V66.3818H64.1638V55.3618H66.4438ZM72.5172 56.9618C72.8505 56.4018 73.2905 55.9685 73.8372 55.6618C74.3972 55.3418 75.0572 55.1818 75.8172 55.1818V57.5418H75.2372C74.3439 57.5418 73.6639 57.7685 73.1972 58.2218C72.7439 58.6752 72.5172 59.4618 72.5172 60.5818V66.3818H70.2372V55.3618H72.5172V56.9618ZM88.813 60.6018C88.813 61.0152 88.7863 61.3885 88.733 61.7218H80.313C80.3797 62.6018 80.7063 63.3085 81.293 63.8418C81.8797 64.3752 82.5997 64.6418 83.453 64.6418C84.6797 64.6418 85.5463 64.1285 86.053 63.1018H88.513C88.1797 64.1152 87.573 64.9485 86.693 65.6018C85.8263 66.2418 84.7463 66.5618 83.453 66.5618C82.3997 66.5618 81.453 66.3285 80.613 65.8618C79.7863 65.3818 79.133 64.7152 78.653 63.8618C78.1863 62.9952 77.953 61.9952 77.953 60.8618C77.953 59.7285 78.1797 58.7352 78.633 57.8818C79.0997 57.0152 79.7463 56.3485 80.573 55.8818C81.413 55.4152 82.373 55.1818 83.453 55.1818C84.493 55.1818 85.4197 55.4085 86.233 55.8618C87.0463 56.3152 87.6797 56.9552 88.133 57.7818C88.5863 58.5952 88.813 59.5352 88.813 60.6018ZM86.433 59.8818C86.4197 59.0418 86.1197 58.3685 85.533 57.8618C84.9463 57.3552 84.2197 57.1018 83.353 57.1018C82.5663 57.1018 81.893 57.3552 81.333 57.8618C80.773 58.3552 80.4397 59.0285 80.333 59.8818H86.433ZM91.0967 60.8218C91.0967 59.7152 91.3234 58.7352 91.7767 57.8818C92.2434 57.0285 92.8701 56.3685 93.6567 55.9018C94.4567 55.4218 95.3434 55.1818 96.3167 55.1818C97.0367 55.1818 97.7434 55.3418 98.4367 55.6618C99.1434 55.9685 99.7034 56.3818 100.117 56.9018V51.5818H102.417V66.3818H100.117V64.7218C99.7434 65.2552 99.2234 65.6952 98.5567 66.0418C97.9034 66.3885 97.1501 66.5618 96.2967 66.5618C95.3367 66.5618 94.4567 66.3218 93.6567 65.8418C92.8701 65.3485 92.2434 64.6685 91.7767 63.8018C91.3234 62.9218 91.0967 61.9285 91.0967 60.8218ZM100.117 60.8618C100.117 60.1018 99.9567 59.4418 99.6367 58.8818C99.3301 58.3218 98.9234 57.8952 98.4167 57.6018C97.9101 57.3085 97.3634 57.1618 96.7767 57.1618C96.1901 57.1618 95.6434 57.3085 95.1367 57.6018C94.6301 57.8818 94.2167 58.3018 93.8967 58.8618C93.5901 59.4085 93.4367 60.0618 93.4367 60.8218C93.4367 61.5818 93.5901 62.2485 93.8967 62.8218C94.2167 63.3952 94.6301 63.8352 95.1367 64.1418C95.6567 64.4352 96.2034 64.5818 96.7767 64.5818C97.3634 64.5818 97.9101 64.4352 98.4167 64.1418C98.9234 63.8485 99.3301 63.4218 99.6367 62.8618C99.9567 62.2885 100.117 61.6218 100.117 60.8618ZM113.167 63.2818C114.447 62.1752 115.453 61.2685 116.187 60.5618C116.933 59.8418 117.553 59.0952 118.047 58.3218C118.54 57.5485 118.787 56.7752 118.787 56.0018C118.787 55.2018 118.593 54.5752 118.207 54.1218C117.833 53.6685 117.24 53.4418 116.427 53.4418C115.64 53.4418 115.027 53.6952 114.587 54.2018C114.16 54.6952 113.933 55.3618 113.907 56.2018H111.707C111.747 54.6818 112.2 53.5218 113.067 52.7218C113.947 51.9085 115.06 51.5018 116.407 51.5018C117.86 51.5018 118.993 51.9018 119.807 52.7018C120.633 53.5018 121.047 54.5685 121.047 55.9018C121.047 56.8618 120.8 57.7885 120.307 58.6818C119.827 59.5618 119.247 60.3552 118.567 61.0618C117.9 61.7552 117.047 62.5618 116.007 63.4818L115.107 64.2818H121.447V66.1818H111.727V64.5218L113.167 63.2818ZM123.97 63.3418V61.6218L130.69 51.9818H133.45V61.3618H135.31V63.3418H133.45V66.3818H131.21V63.3418H123.97ZM131.31 54.3018L126.59 61.3618H131.31V54.3018ZM146.954 57.2218V63.3218C146.954 63.7352 147.048 64.0352 147.234 64.2218C147.434 64.3952 147.768 64.4818 148.234 64.4818H149.634V66.3818H147.834C146.808 66.3818 146.021 66.1418 145.474 65.6618C144.928 65.1818 144.654 64.4018 144.654 63.3218V57.2218H143.354V55.3618H144.654V52.6218H146.954V55.3618H149.634V57.2218H146.954ZM151.776 60.8218C151.776 59.7152 152.002 58.7352 152.456 57.8818C152.922 57.0285 153.549 56.3685 154.336 55.9018C155.136 55.4218 156.016 55.1818 156.976 55.1818C157.842 55.1818 158.596 55.3552 159.236 55.7018C159.889 56.0352 160.409 56.4552 160.796 56.9618V55.3618H163.096V66.3818H160.796V64.7418C160.409 65.2618 159.882 65.6952 159.216 66.0418C158.549 66.3885 157.789 66.5618 156.936 66.5618C155.989 66.5618 155.122 66.3218 154.336 65.8418C153.549 65.3485 152.922 64.6685 152.456 63.8018C152.002 62.9218 151.776 61.9285 151.776 60.8218ZM160.796 60.8618C160.796 60.1018 160.636 59.4418 160.316 58.8818C160.009 58.3218 159.602 57.8952 159.096 57.6018C158.589 57.3085 158.042 57.1618 157.456 57.1618C156.869 57.1618 156.322 57.3085 155.816 57.6018C155.309 57.8818 154.896 58.3018 154.576 58.8618C154.269 59.4085 154.116 60.0618 154.116 60.8218C154.116 61.5818 154.269 62.2485 154.576 62.8218C154.896 63.3952 155.309 63.8352 155.816 64.1418C156.336 64.4352 156.882 64.5818 157.456 64.5818C158.042 64.5818 158.589 64.4352 159.096 64.1418C159.602 63.8485 160.009 63.4218 160.316 62.8618C160.636 62.2885 160.796 61.6218 160.796 60.8618ZM169.17 51.5818V66.3818H166.89V51.5818H169.17ZM183.064 60.6018C183.064 61.0152 183.037 61.3885 182.984 61.7218H174.564C174.63 62.6018 174.957 63.3085 175.544 63.8418C176.13 64.3752 176.85 64.6418 177.704 64.6418C178.93 64.6418 179.797 64.1285 180.304 63.1018H182.764C182.43 64.1152 181.824 64.9485 180.944 65.6018C180.077 66.2418 178.997 66.5618 177.704 66.5618C176.65 66.5618 175.704 66.3285 174.864 65.8618C174.037 65.3818 173.384 64.7152 172.904 63.8618C172.437 62.9952 172.204 61.9952 172.204 60.8618C172.204 59.7285 172.43 58.7352 172.884 57.8818C173.35 57.0152 173.997 56.3485 174.824 55.8818C175.664 55.4152 176.624 55.1818 177.704 55.1818C178.744 55.1818 179.67 55.4085 180.484 55.8618C181.297 56.3152 181.93 56.9552 182.384 57.7818C182.837 58.5952 183.064 59.5352 183.064 60.6018ZM180.684 59.8818C180.67 59.0418 180.37 58.3685 179.784 57.8618C179.197 57.3552 178.47 57.1018 177.604 57.1018C176.817 57.1018 176.144 57.3552 175.584 57.8618C175.024 58.3552 174.69 59.0285 174.584 59.8818H180.684ZM191.668 55.1818C192.534 55.1818 193.308 55.3618 193.988 55.7218C194.681 56.0818 195.221 56.6152 195.608 57.3218C195.994 58.0285 196.188 58.8818 196.188 59.8818V66.3818H193.928V60.2218C193.928 59.2352 193.681 58.4818 193.188 57.9618C192.694 57.4285 192.021 57.1618 191.168 57.1618C190.314 57.1618 189.634 57.4285 189.128 57.9618C188.634 58.4818 188.388 59.2352 188.388 60.2218V66.3818H186.108V55.3618H188.388V56.6218C188.761 56.1685 189.234 55.8152 189.808 55.5618C190.394 55.3085 191.014 55.1818 191.668 55.1818ZM202.556 57.2218V63.3218C202.556 63.7352 202.649 64.0352 202.836 64.2218C203.036 64.3952 203.369 64.4818 203.836 64.4818H205.236V66.3818H203.436C202.409 66.3818 201.622 66.1418 201.076 65.6618C200.529 65.1818 200.256 64.4018 200.256 63.3218V57.2218H198.956V55.3618H200.256V52.6218H202.556V55.3618H205.236V57.2218H202.556ZM218.237 60.6018C218.237 61.0152 218.211 61.3885 218.157 61.7218H209.737C209.804 62.6018 210.131 63.3085 210.717 63.8418C211.304 64.3752 212.024 64.6418 212.877 64.6418C214.104 64.6418 214.971 64.1285 215.477 63.1018H217.937C217.604 64.1152 216.997 64.9485 216.117 65.6018C215.251 66.2418 214.171 66.5618 212.877 66.5618C211.824 66.5618 210.877 66.3285 210.037 65.8618C209.211 65.3818 208.557 64.7152 208.077 63.8618C207.611 62.9952 207.377 61.9952 207.377 60.8618C207.377 59.7285 207.604 58.7352 208.057 57.8818C208.524 57.0152 209.171 56.3485 209.997 55.8818C210.837 55.4152 211.797 55.1818 212.877 55.1818C213.917 55.1818 214.844 55.4085 215.657 55.8618C216.471 56.3152 217.104 56.9552 217.557 57.7818C218.011 58.5952 218.237 59.5352 218.237 60.6018ZM215.857 59.8818C215.844 59.0418 215.544 58.3685 214.957 57.8618C214.371 57.3552 213.644 57.1018 212.777 57.1018C211.991 57.1018 211.317 57.3552 210.757 57.8618C210.197 58.3552 209.864 59.0285 209.757 59.8818H215.857ZM220.521 60.8218C220.521 59.7152 220.748 58.7352 221.201 57.8818C221.668 57.0285 222.294 56.3685 223.081 55.9018C223.881 55.4218 224.768 55.1818 225.741 55.1818C226.461 55.1818 227.168 55.3418 227.861 55.6618C228.568 55.9685 229.128 56.3818 229.541 56.9018V51.5818H231.841V66.3818H229.541V64.7218C229.168 65.2552 228.648 65.6952 227.981 66.0418C227.328 66.3885 226.574 66.5618 225.721 66.5618C224.761 66.5618 223.881 66.3218 223.081 65.8418C222.294 65.3485 221.668 64.6685 221.201 63.8018C220.748 62.9218 220.521 61.9285 220.521 60.8218ZM229.541 60.8618C229.541 60.1018 229.381 59.4418 229.061 58.8818C228.754 58.3218 228.348 57.8952 227.841 57.6018C227.334 57.3085 226.788 57.1618 226.201 57.1618C225.614 57.1618 225.068 57.3085 224.561 57.6018C224.054 57.8818 223.641 58.3018 223.321 58.8618C223.014 59.4085 222.861 60.0618 222.861 60.8218C222.861 61.5818 223.014 62.2485 223.321 62.8218C223.641 63.3952 224.054 63.8352 224.561 64.1418C225.081 64.4352 225.628 64.5818 226.201 64.5818C226.788 64.5818 227.334 64.4352 227.841 64.1418C228.348 63.8485 228.754 63.4218 229.061 62.8618C229.381 62.2885 229.541 61.6218 229.541 60.8618ZM240.871 60.8218C240.871 59.7152 241.098 58.7352 241.551 57.8818C242.018 57.0285 242.644 56.3685 243.431 55.9018C244.231 55.4218 245.118 55.1818 246.091 55.1818C246.811 55.1818 247.518 55.3418 248.211 55.6618C248.918 55.9685 249.478 56.3818 249.891 56.9018V51.5818H252.191V66.3818H249.891V64.7218C249.518 65.2552 248.998 65.6952 248.331 66.0418C247.678 66.3885 246.924 66.5618 246.071 66.5618C245.111 66.5618 244.231 66.3218 243.431 65.8418C242.644 65.3485 242.018 64.6685 241.551 63.8018C241.098 62.9218 240.871 61.9285 240.871 60.8218ZM249.891 60.8618C249.891 60.1018 249.731 59.4418 249.411 58.8818C249.104 58.3218 248.698 57.8952 248.191 57.6018C247.684 57.3085 247.138 57.1618 246.551 57.1618C245.964 57.1618 245.418 57.3085 244.911 57.6018C244.404 57.8818 243.991 58.3018 243.671 58.8618C243.364 59.4085 243.211 60.0618 243.211 60.8218C243.211 61.5818 243.364 62.2485 243.671 62.8218C243.991 63.3952 244.404 63.8352 244.911 64.1418C245.431 64.4352 245.978 64.5818 246.551 64.5818C247.138 64.5818 247.684 64.4352 248.191 64.1418C248.698 63.8485 249.104 63.4218 249.411 62.8618C249.731 62.2885 249.891 61.6218 249.891 60.8618ZM266.086 60.6018C266.086 61.0152 266.059 61.3885 266.006 61.7218H257.586C257.652 62.6018 257.979 63.3085 258.566 63.8418C259.152 64.3752 259.872 64.6418 260.726 64.6418C261.952 64.6418 262.819 64.1285 263.326 63.1018H265.786C265.452 64.1152 264.846 64.9485 263.966 65.6018C263.099 66.2418 262.019 66.5618 260.726 66.5618C259.672 66.5618 258.726 66.3285 257.886 65.8618C257.059 65.3818 256.406 64.7152 255.926 63.8618C255.459 62.9952 255.226 61.9952 255.226 60.8618C255.226 59.7285 255.452 58.7352 255.906 57.8818C256.372 57.0152 257.019 56.3485 257.846 55.8818C258.686 55.4152 259.646 55.1818 260.726 55.1818C261.766 55.1818 262.692 55.4085 263.506 55.8618C264.319 56.3152 264.952 56.9552 265.406 57.7818C265.859 58.5952 266.086 59.5352 266.086 60.6018ZM263.706 59.8818C263.692 59.0418 263.392 58.3685 262.806 57.8618C262.219 57.3552 261.492 57.1018 260.626 57.1018C259.839 57.1018 259.166 57.3552 258.606 57.8618C258.046 58.3552 257.712 59.0285 257.606 59.8818H263.706ZM273.389 64.3418L276.509 55.3618H278.929L274.729 66.3818H272.009L267.829 55.3618H270.269L273.389 64.3418ZM291.553 60.6018C291.553 61.0152 291.526 61.3885 291.473 61.7218H283.053C283.12 62.6018 283.446 63.3085 284.033 63.8418C284.62 64.3752 285.34 64.6418 286.193 64.6418C287.42 64.6418 288.286 64.1285 288.793 63.1018H291.253C290.92 64.1152 290.313 64.9485 289.433 65.6018C288.566 66.2418 287.486 66.5618 286.193 66.5618C285.14 66.5618 284.193 66.3285 283.353 65.8618C282.526 65.3818 281.873 64.7152 281.393 63.8618C280.926 62.9952 280.693 61.9952 280.693 60.8618C280.693 59.7285 280.92 58.7352 281.373 57.8818C281.84 57.0152 282.486 56.3485 283.313 55.8818C284.153 55.4152 285.113 55.1818 286.193 55.1818C287.233 55.1818 288.16 55.4085 288.973 55.8618C289.786 56.3152 290.42 56.9552 290.873 57.7818C291.326 58.5952 291.553 59.5352 291.553 60.6018ZM289.173 59.8818C289.16 59.0418 288.86 58.3685 288.273 57.8618C287.686 57.3552 286.96 57.1018 286.093 57.1018C285.306 57.1018 284.633 57.3552 284.073 57.8618C283.513 58.3552 283.18 59.0285 283.073 59.8818H289.173ZM296.877 51.5818V66.3818H294.597V51.5818H296.877ZM305.45 66.5618C304.41 66.5618 303.47 66.3285 302.63 65.8618C301.79 65.3818 301.13 64.7152 300.65 63.8618C300.17 62.9952 299.93 61.9952 299.93 60.8618C299.93 59.7418 300.177 58.7485 300.67 57.8818C301.163 57.0152 301.837 56.3485 302.69 55.8818C303.543 55.4152 304.497 55.1818 305.55 55.1818C306.603 55.1818 307.557 55.4152 308.41 55.8818C309.263 56.3485 309.937 57.0152 310.43 57.8818C310.923 58.7485 311.17 59.7418 311.17 60.8618C311.17 61.9818 310.917 62.9752 310.41 63.8418C309.903 64.7085 309.21 65.3818 308.33 65.8618C307.463 66.3285 306.503 66.5618 305.45 66.5618ZM305.45 64.5818C306.037 64.5818 306.583 64.4418 307.09 64.1618C307.61 63.8818 308.03 63.4618 308.35 62.9018C308.67 62.3418 308.83 61.6618 308.83 60.8618C308.83 60.0618 308.677 59.3885 308.37 58.8418C308.063 58.2818 307.657 57.8618 307.15 57.5818C306.643 57.3018 306.097 57.1618 305.51 57.1618C304.923 57.1618 304.377 57.3018 303.87 57.5818C303.377 57.8618 302.983 58.2818 302.69 58.8418C302.397 59.3885 302.25 60.0618 302.25 60.8618C302.25 62.0485 302.55 62.9685 303.15 63.6218C303.763 64.2618 304.53 64.5818 305.45 64.5818ZM316.504 56.9818C316.891 56.4752 317.417 56.0485 318.084 55.7018C318.751 55.3552 319.504 55.1818 320.344 55.1818C321.304 55.1818 322.177 55.4218 322.964 55.9018C323.764 56.3685 324.391 57.0285 324.844 57.8818C325.297 58.7352 325.524 59.7152 325.524 60.8218C325.524 61.9285 325.297 62.9218 324.844 63.8018C324.391 64.6685 323.764 65.3485 322.964 65.8418C322.177 66.3218 321.304 66.5618 320.344 66.5618C319.504 66.5618 318.757 66.3952 318.104 66.0618C317.451 65.7152 316.917 65.2885 316.504 64.7818V71.6218H314.224V55.3618H316.504V56.9818ZM323.204 60.8218C323.204 60.0618 323.044 59.4085 322.724 58.8618C322.417 58.3018 322.004 57.8818 321.484 57.6018C320.977 57.3085 320.431 57.1618 319.844 57.1618C319.271 57.1618 318.724 57.3085 318.204 57.6018C317.697 57.8952 317.284 58.3218 316.964 58.8818C316.657 59.4418 316.504 60.1018 316.504 60.8618C316.504 61.6218 316.657 62.2885 316.964 62.8618C317.284 63.4218 317.697 63.8485 318.204 64.1418C318.724 64.4352 319.271 64.5818 319.844 64.5818C320.431 64.5818 320.977 64.4352 321.484 64.1418C322.004 63.8352 322.417 63.3952 322.724 62.8218C323.044 62.2485 323.204 61.5818 323.204 60.8218ZM338.679 60.6018C338.679 61.0152 338.652 61.3885 338.599 61.7218H330.179C330.245 62.6018 330.572 63.3085 331.159 63.8418C331.745 64.3752 332.465 64.6418 333.319 64.6418C334.545 64.6418 335.412 64.1285 335.919 63.1018H338.379C338.045 64.1152 337.439 64.9485 336.559 65.6018C335.692 66.2418 334.612 66.5618 333.319 66.5618C332.265 66.5618 331.319 66.3285 330.479 65.8618C329.652 65.3818 328.999 64.7152 328.519 63.8618C328.052 62.9952 327.819 61.9952 327.819 60.8618C327.819 59.7285 328.045 58.7352 328.499 57.8818C328.965 57.0152 329.612 56.3485 330.439 55.8818C331.279 55.4152 332.239 55.1818 333.319 55.1818C334.359 55.1818 335.285 55.4085 336.099 55.8618C336.912 56.3152 337.545 56.9552 337.999 57.7818C338.452 58.5952 338.679 59.5352 338.679 60.6018ZM336.299 59.8818C336.285 59.0418 335.985 58.3685 335.399 57.8618C334.812 57.3552 334.085 57.1018 333.219 57.1018C332.432 57.1018 331.759 57.3552 331.199 57.8618C330.639 58.3552 330.305 59.0285 330.199 59.8818H336.299ZM344.002 56.9618C344.336 56.4018 344.776 55.9685 345.322 55.6618C345.882 55.3418 346.542 55.1818 347.302 55.1818V57.5418H346.722C345.829 57.5418 345.149 57.7685 344.682 58.2218C344.229 58.6752 344.002 59.4618 344.002 60.5818V66.3818H341.722V55.3618H344.002V56.9618ZM354.198 66.5618C353.331 66.5618 352.551 66.4085 351.858 66.1018C351.178 65.7818 350.638 65.3552 350.238 64.8218C349.838 64.2752 349.625 63.6685 349.598 63.0018H351.958C351.998 63.4685 352.218 63.8618 352.618 64.1818C353.031 64.4885 353.545 64.6418 354.158 64.6418C354.798 64.6418 355.291 64.5218 355.638 64.2818C355.998 64.0285 356.178 63.7085 356.178 63.3218C356.178 62.9085 355.978 62.6018 355.578 62.4018C355.191 62.2018 354.571 61.9818 353.718 61.7418C352.891 61.5152 352.218 61.2952 351.698 61.0818C351.178 60.8685 350.725 60.5418 350.338 60.1018C349.965 59.6618 349.778 59.0818 349.778 58.3618C349.778 57.7752 349.951 57.2418 350.298 56.7618C350.645 56.2685 351.138 55.8818 351.778 55.6018C352.431 55.3218 353.178 55.1818 354.018 55.1818C355.271 55.1818 356.278 55.5018 357.038 56.1418C357.811 56.7685 358.225 57.6285 358.278 58.7218H355.998C355.958 58.2285 355.758 57.8352 355.398 57.5418C355.038 57.2485 354.551 57.1018 353.938 57.1018C353.338 57.1018 352.878 57.2152 352.558 57.4418C352.238 57.6685 352.078 57.9685 352.078 58.3418C352.078 58.6352 352.185 58.8818 352.398 59.0818C352.611 59.2818 352.871 59.4418 353.178 59.5618C353.485 59.6685 353.938 59.8085 354.538 59.9818C355.338 60.1952 355.991 60.4152 356.498 60.6418C357.018 60.8552 357.465 61.1752 357.838 61.6018C358.211 62.0285 358.405 62.5952 358.418 63.3018C358.418 63.9285 358.245 64.4885 357.898 64.9818C357.551 65.4752 357.058 65.8618 356.418 66.1418C355.791 66.4218 355.051 66.5618 354.198 66.5618Z" fill="white"/>
<defs>
<linearGradient id="paint0_linear_51_6558" x1="0.473145" y1="0.0776367" x2="432.686" y2="118.739" gradientUnits="userSpaceOnUse">
<stop stop-color="#812DE2"/>
<stop offset="1" stop-color="#3A49F9"/>
</linearGradient>
</defs>
</svg>
