<svg width="433" height="119" viewBox="0 0 433 119" fill="none" xmlns="http://www.w3.org/2000/svg">
<rect x="1.47314" y="1" width="430.394" height="116.002" rx="29" fill="#1C1A50" stroke="url(#paint0_linear_51_6555)" stroke-width="2"/>
<path d="M45.8483 63.4642H40.0283L39.0283 66.3042H36.6483L41.6283 52.3842H44.2683L49.2483 66.3042H46.8483L45.8483 63.4642ZM45.2083 61.6042L42.9483 55.1442L40.6683 61.6042H45.2083ZM51.4536 60.7842C51.4536 59.6509 51.6802 58.6575 52.1336 57.8042C52.6002 56.9375 53.2402 56.2709 54.0536 55.8042C54.8669 55.3375 55.8002 55.1042 56.8536 55.1042C58.1869 55.1042 59.2869 55.4242 60.1536 56.0642C61.0336 56.6909 61.6269 57.5909 61.9336 58.7642H59.4736C59.2736 58.2175 58.9536 57.7909 58.5136 57.4842C58.0736 57.1775 57.5202 57.0242 56.8536 57.0242C55.9202 57.0242 55.1736 57.3575 54.6136 58.0242C54.0669 58.6775 53.7936 59.5975 53.7936 60.7842C53.7936 61.9709 54.0669 62.8975 54.6136 63.5642C55.1736 64.2309 55.9202 64.5642 56.8536 64.5642C58.1736 64.5642 59.0469 63.9842 59.4736 62.8242H61.9336C61.6136 63.9442 61.0136 64.8375 60.1336 65.5042C59.2536 66.1575 58.1602 66.4842 56.8536 66.4842C55.8002 66.4842 54.8669 66.2509 54.0536 65.7842C53.2402 65.3042 52.6002 64.6375 52.1336 63.7842C51.6802 62.9175 51.4536 61.9175 51.4536 60.7842ZM64.2458 60.7842C64.2458 59.6509 64.4724 58.6575 64.9258 57.8042C65.3924 56.9375 66.0324 56.2709 66.8458 55.8042C67.6591 55.3375 68.5924 55.1042 69.6458 55.1042C70.9791 55.1042 72.0791 55.4242 72.9458 56.0642C73.8258 56.6909 74.4191 57.5909 74.7258 58.7642H72.2658C72.0658 58.2175 71.7458 57.7909 71.3058 57.4842C70.8658 57.1775 70.3124 57.0242 69.6458 57.0242C68.7124 57.0242 67.9658 57.3575 67.4058 58.0242C66.8591 58.6775 66.5858 59.5975 66.5858 60.7842C66.5858 61.9709 66.8591 62.8975 67.4058 63.5642C67.9658 64.2309 68.7124 64.5642 69.6458 64.5642C70.9658 64.5642 71.8391 63.9842 72.2658 62.8242H74.7258C74.4058 63.9442 73.8058 64.8375 72.9258 65.5042C72.0458 66.1575 70.9524 66.4842 69.6458 66.4842C68.5924 66.4842 67.6591 66.2509 66.8458 65.7842C66.0324 65.3042 65.3924 64.6375 64.9258 63.7842C64.4724 62.9175 64.2458 61.9175 64.2458 60.7842ZM77.038 60.7442C77.038 59.6375 77.2646 58.6575 77.718 57.8042C78.1846 56.9509 78.8113 56.2909 79.598 55.8242C80.398 55.3442 81.2846 55.1042 82.258 55.1042C83.1113 55.1042 83.8646 55.2775 84.518 55.6242C85.1846 55.9709 85.698 56.3909 86.058 56.8842V55.2842H88.358V71.5442H86.058V64.7042C85.698 65.1975 85.178 65.6175 84.498 65.9642C83.818 66.3109 83.0446 66.4842 82.178 66.4842C81.2313 66.4842 80.3646 66.2442 79.578 65.7642C78.8046 65.2709 78.1846 64.5909 77.718 63.7242C77.2646 62.8442 77.038 61.8509 77.038 60.7442ZM86.058 60.7842C86.058 60.0242 85.898 59.3642 85.578 58.8042C85.2713 58.2442 84.8646 57.8175 84.358 57.5242C83.8513 57.2309 83.3046 57.0842 82.718 57.0842C82.1313 57.0842 81.5846 57.2309 81.078 57.5242C80.5713 57.8042 80.158 58.2242 79.838 58.7842C79.5313 59.3309 79.378 59.9842 79.378 60.7442C79.378 61.5042 79.5313 62.1709 79.838 62.7442C80.158 63.3175 80.5713 63.7575 81.078 64.0642C81.598 64.3575 82.1446 64.5042 82.718 64.5042C83.3046 64.5042 83.8513 64.3575 84.358 64.0642C84.8646 63.7709 85.2713 63.3442 85.578 62.7842C85.898 62.2109 86.058 61.5442 86.058 60.7842ZM102.133 55.2842V66.3042H99.8526V65.0042C99.4926 65.4575 99.0193 65.8175 98.4326 66.0842C97.8593 66.3375 97.246 66.4642 96.5926 66.4642C95.726 66.4642 94.946 66.2842 94.2526 65.9242C93.5726 65.5642 93.0326 65.0309 92.6326 64.3242C92.246 63.6175 92.0526 62.7642 92.0526 61.7642V55.2842H94.3126V61.4242C94.3126 62.4109 94.5593 63.1709 95.0526 63.7042C95.546 64.2242 96.2193 64.4842 97.0726 64.4842C97.926 64.4842 98.5993 64.2242 99.0926 63.7042C99.5993 63.1709 99.8526 62.4109 99.8526 61.4242V55.2842H102.133ZM107.101 53.8242C106.688 53.8242 106.341 53.6842 106.061 53.4042C105.781 53.1242 105.641 52.7775 105.641 52.3642C105.641 51.9509 105.781 51.6042 106.061 51.3242C106.341 51.0442 106.688 50.9042 107.101 50.9042C107.501 50.9042 107.841 51.0442 108.121 51.3242C108.401 51.6042 108.541 51.9509 108.541 52.3642C108.541 52.7775 108.401 53.1242 108.121 53.4042C107.841 53.6842 107.501 53.8242 107.101 53.8242ZM108.221 55.2842V66.3042H105.941V55.2842H108.221ZM114.294 56.8842C114.628 56.3242 115.068 55.8909 115.614 55.5842C116.174 55.2642 116.834 55.1042 117.594 55.1042V57.4642H117.014C116.121 57.4642 115.441 57.6909 114.974 58.1442C114.521 58.5975 114.294 59.3842 114.294 60.5042V66.3042H112.014V55.2842H114.294V56.8842ZM130.59 60.5242C130.59 60.9375 130.563 61.3109 130.51 61.6442H122.09C122.157 62.5242 122.483 63.2309 123.07 63.7642C123.657 64.2975 124.377 64.5642 125.23 64.5642C126.457 64.5642 127.323 64.0509 127.83 63.0242H130.29C129.957 64.0375 129.35 64.8709 128.47 65.5242C127.603 66.1642 126.523 66.4842 125.23 66.4842C124.177 66.4842 123.23 66.2509 122.39 65.7842C121.563 65.3042 120.91 64.6375 120.43 63.7842C119.963 62.9175 119.73 61.9175 119.73 60.7842C119.73 59.6509 119.957 58.6575 120.41 57.8042C120.877 56.9375 121.523 56.2709 122.35 55.8042C123.19 55.3375 124.15 55.1042 125.23 55.1042C126.27 55.1042 127.197 55.3309 128.01 55.7842C128.823 56.2375 129.457 56.8775 129.91 57.7042C130.363 58.5175 130.59 59.4575 130.59 60.5242ZM128.21 59.8042C128.197 58.9642 127.897 58.2909 127.31 57.7842C126.723 57.2775 125.997 57.0242 125.13 57.0242C124.343 57.0242 123.67 57.2775 123.11 57.7842C122.55 58.2775 122.217 58.9509 122.11 59.8042H128.21ZM132.874 60.7442C132.874 59.6375 133.101 58.6575 133.554 57.8042C134.021 56.9509 134.647 56.2909 135.434 55.8242C136.234 55.3442 137.121 55.1042 138.094 55.1042C138.814 55.1042 139.521 55.2642 140.214 55.5842C140.921 55.8909 141.481 56.3042 141.894 56.8242V51.5042H144.194V66.3042H141.894V64.6442C141.521 65.1775 141.001 65.6175 140.334 65.9642C139.681 66.3109 138.927 66.4842 138.074 66.4842C137.114 66.4842 136.234 66.2442 135.434 65.7642C134.647 65.2709 134.021 64.5909 133.554 63.7242C133.101 62.8442 132.874 61.8509 132.874 60.7442ZM141.894 60.7842C141.894 60.0242 141.734 59.3642 141.414 58.8042C141.107 58.2442 140.701 57.8175 140.194 57.5242C139.687 57.2309 139.141 57.0842 138.554 57.0842C137.967 57.0842 137.421 57.2309 136.914 57.5242C136.407 57.8042 135.994 58.2242 135.674 58.7842C135.367 59.3309 135.214 59.9842 135.214 60.7442C135.214 61.5042 135.367 62.1709 135.674 62.7442C135.994 63.3175 136.407 63.7575 136.914 64.0642C137.434 64.3575 137.981 64.5042 138.554 64.5042C139.141 64.5042 139.687 64.3575 140.194 64.0642C140.701 63.7709 141.107 63.3442 141.414 62.7842C141.734 62.2109 141.894 61.5442 141.894 60.7842ZM156.144 58.6842C154.757 57.9909 154.064 56.8975 154.064 55.4042C154.064 54.6842 154.244 54.0242 154.604 53.4242C154.964 52.8242 155.504 52.3509 156.224 52.0042C156.944 51.6442 157.824 51.4642 158.864 51.4642C159.891 51.4642 160.764 51.6442 161.484 52.0042C162.217 52.3509 162.764 52.8242 163.124 53.4242C163.484 54.0242 163.664 54.6842 163.664 55.4042C163.664 56.1509 163.471 56.8109 163.084 57.3842C162.711 57.9442 162.211 58.3775 161.584 58.6842C162.344 58.9642 162.944 59.4242 163.384 60.0642C163.824 60.6909 164.044 61.4309 164.044 62.2842C164.044 63.1509 163.824 63.9175 163.384 64.5842C162.944 65.2509 162.331 65.7642 161.544 66.1242C160.757 66.4842 159.864 66.6642 158.864 66.6642C157.864 66.6642 156.971 66.4842 156.184 66.1242C155.411 65.7642 154.804 65.2509 154.364 64.5842C153.924 63.9175 153.704 63.1509 153.704 62.2842C153.704 61.4175 153.924 60.6709 154.364 60.0442C154.804 59.4175 155.397 58.9642 156.144 58.6842ZM161.484 55.6842C161.484 54.9375 161.251 54.3642 160.784 53.9642C160.317 53.5642 159.677 53.3642 158.864 53.3642C158.064 53.3642 157.431 53.5642 156.964 53.9642C156.497 54.3642 156.264 54.9442 156.264 55.7042C156.264 56.3709 156.504 56.9175 156.984 57.3442C157.477 57.7575 158.104 57.9642 158.864 57.9642C159.624 57.9642 160.251 57.7509 160.744 57.3242C161.237 56.8975 161.484 56.3509 161.484 55.6842ZM158.864 59.6842C157.984 59.6842 157.264 59.9042 156.704 60.3442C156.157 60.7709 155.884 61.3909 155.884 62.2042C155.884 62.9642 156.151 63.5842 156.684 64.0642C157.217 64.5309 157.944 64.7642 158.864 64.7642C159.771 64.7642 160.484 64.5242 161.004 64.0442C161.537 63.5642 161.804 62.9509 161.804 62.2042C161.804 61.4042 161.531 60.7842 160.984 60.3442C160.451 59.9042 159.744 59.6842 158.864 59.6842ZM175.813 51.5042V66.3042H173.533V51.5042H175.813ZM184.387 66.4842C183.347 66.4842 182.407 66.2509 181.567 65.7842C180.727 65.3042 180.067 64.6375 179.587 63.7842C179.107 62.9175 178.867 61.9175 178.867 60.7842C178.867 59.6642 179.113 58.6709 179.607 57.8042C180.1 56.9375 180.773 56.2709 181.627 55.8042C182.48 55.3375 183.433 55.1042 184.487 55.1042C185.54 55.1042 186.493 55.3375 187.347 55.8042C188.2 56.2709 188.873 56.9375 189.367 57.8042C189.86 58.6709 190.107 59.6642 190.107 60.7842C190.107 61.9042 189.853 62.8975 189.347 63.7642C188.84 64.6309 188.147 65.3042 187.267 65.7842C186.4 66.2509 185.44 66.4842 184.387 66.4842ZM184.387 64.5042C184.973 64.5042 185.52 64.3642 186.027 64.0842C186.547 63.8042 186.967 63.3842 187.287 62.8242C187.607 62.2642 187.767 61.5842 187.767 60.7842C187.767 59.9842 187.613 59.3109 187.307 58.7642C187 58.2042 186.593 57.7842 186.087 57.5042C185.58 57.2242 185.033 57.0842 184.447 57.0842C183.86 57.0842 183.313 57.2242 182.807 57.5042C182.313 57.7842 181.92 58.2042 181.627 58.7642C181.333 59.3109 181.187 59.9842 181.187 60.7842C181.187 61.9709 181.487 62.8909 182.087 63.5442C182.7 64.1842 183.467 64.5042 184.387 64.5042ZM198.72 55.1042C199.587 55.1042 200.36 55.2842 201.04 55.6442C201.734 56.0042 202.274 56.5375 202.66 57.2442C203.047 57.9509 203.24 58.8042 203.24 59.8042V66.3042H200.98V60.1442C200.98 59.1575 200.734 58.4042 200.24 57.8842C199.747 57.3509 199.074 57.0842 198.22 57.0842C197.367 57.0842 196.687 57.3509 196.18 57.8842C195.687 58.4042 195.44 59.1575 195.44 60.1442V66.3042H193.16V55.2842H195.44V56.5442C195.814 56.0909 196.287 55.7375 196.86 55.4842C197.447 55.2309 198.067 55.1042 198.72 55.1042ZM211.389 55.1042C212.242 55.1042 212.995 55.2775 213.649 55.6242C214.315 55.9575 214.835 56.3775 215.209 56.8842V55.2842H217.509V66.4842C217.509 67.4975 217.295 68.3975 216.869 69.1842C216.442 69.9842 215.822 70.6109 215.009 71.0642C214.209 71.5175 213.249 71.7442 212.129 71.7442C210.635 71.7442 209.395 71.3909 208.409 70.6842C207.422 69.9909 206.862 69.0442 206.729 67.8442H208.989C209.162 68.4175 209.529 68.8775 210.089 69.2242C210.662 69.5842 211.342 69.7642 212.129 69.7642C213.049 69.7642 213.789 69.4842 214.349 68.9242C214.922 68.3642 215.209 67.5509 215.209 66.4842V64.6442C214.822 65.1642 214.295 65.6042 213.629 65.9642C212.975 66.3109 212.229 66.4842 211.389 66.4842C210.429 66.4842 209.549 66.2442 208.749 65.7642C207.962 65.2709 207.335 64.5909 206.869 63.7242C206.415 62.8442 206.189 61.8509 206.189 60.7442C206.189 59.6375 206.415 58.6575 206.869 57.8042C207.335 56.9509 207.962 56.2909 208.749 55.8242C209.549 55.3442 210.429 55.1042 211.389 55.1042ZM215.209 60.7842C215.209 60.0242 215.049 59.3642 214.729 58.8042C214.422 58.2442 214.015 57.8175 213.509 57.5242C213.002 57.2309 212.455 57.0842 211.869 57.0842C211.282 57.0842 210.735 57.2309 210.229 57.5242C209.722 57.8042 209.309 58.2242 208.989 58.7842C208.682 59.3309 208.529 59.9842 208.529 60.7442C208.529 61.5042 208.682 62.1709 208.989 62.7442C209.309 63.3175 209.722 63.7575 210.229 64.0642C210.749 64.3575 211.295 64.5042 211.869 64.5042C212.455 64.5042 213.002 64.3575 213.509 64.0642C214.015 63.7709 214.422 63.3442 214.729 62.7842C215.049 62.2109 215.209 61.5442 215.209 60.7842ZM229.959 57.1442V63.2442C229.959 63.6575 230.052 63.9575 230.239 64.1442C230.439 64.3175 230.772 64.4042 231.239 64.4042H232.639V66.3042H230.839C229.812 66.3042 229.025 66.0642 228.479 65.5842C227.932 65.1042 227.659 64.3242 227.659 63.2442V57.1442H226.359V55.2842H227.659V52.5442H229.959V55.2842H232.639V57.1442H229.959ZM236.7 53.8242C236.287 53.8242 235.94 53.6842 235.66 53.4042C235.38 53.1242 235.24 52.7775 235.24 52.3642C235.24 51.9509 235.38 51.6042 235.66 51.3242C235.94 51.0442 236.287 50.9042 236.7 50.9042C237.1 50.9042 237.44 51.0442 237.72 51.3242C238 51.6042 238.14 51.9509 238.14 52.3642C238.14 52.7775 238 53.1242 237.72 53.4042C237.44 53.6842 237.1 53.8242 236.7 53.8242ZM237.82 55.2842V66.3042H235.54V55.2842H237.82ZM254.954 55.1042C255.82 55.1042 256.594 55.2842 257.274 55.6442C257.967 56.0042 258.507 56.5375 258.894 57.2442C259.294 57.9509 259.494 58.8042 259.494 59.8042V66.3042H257.234V60.1442C257.234 59.1575 256.987 58.4042 256.494 57.8842C256 57.3509 255.327 57.0842 254.474 57.0842C253.62 57.0842 252.94 57.3509 252.434 57.8842C251.94 58.4042 251.694 59.1575 251.694 60.1442V66.3042H249.434V60.1442C249.434 59.1575 249.187 58.4042 248.694 57.8842C248.2 57.3509 247.527 57.0842 246.674 57.0842C245.82 57.0842 245.14 57.3509 244.634 57.8842C244.14 58.4042 243.894 59.1575 243.894 60.1442V66.3042H241.614V55.2842H243.894V56.5442C244.267 56.0909 244.74 55.7375 245.314 55.4842C245.887 55.2309 246.5 55.1042 247.154 55.1042C248.034 55.1042 248.82 55.2909 249.514 55.6642C250.207 56.0375 250.74 56.5775 251.114 57.2842C251.447 56.6175 251.967 56.0909 252.674 55.7042C253.38 55.3042 254.14 55.1042 254.954 55.1042ZM273.295 60.5242C273.295 60.9375 273.268 61.3109 273.215 61.6442H264.795C264.861 62.5242 265.188 63.2309 265.775 63.7642C266.361 64.2975 267.081 64.5642 267.935 64.5642C269.161 64.5642 270.028 64.0509 270.535 63.0242H272.995C272.661 64.0375 272.055 64.8709 271.175 65.5242C270.308 66.1642 269.228 66.4842 267.935 66.4842C266.881 66.4842 265.935 66.2509 265.095 65.7842C264.268 65.3042 263.615 64.6375 263.135 63.7842C262.668 62.9175 262.435 61.9175 262.435 60.7842C262.435 59.6509 262.661 58.6575 263.115 57.8042C263.581 56.9375 264.228 56.2709 265.055 55.8042C265.895 55.3375 266.855 55.1042 267.935 55.1042C268.975 55.1042 269.901 55.3309 270.715 55.7842C271.528 56.2375 272.161 56.8775 272.615 57.7042C273.068 58.5175 273.295 59.4575 273.295 60.5242ZM270.915 59.8042C270.901 58.9642 270.601 58.2909 270.015 57.7842C269.428 57.2775 268.701 57.0242 267.835 57.0242C267.048 57.0242 266.375 57.2775 265.815 57.7842C265.255 58.2775 264.921 58.9509 264.815 59.8042H270.915ZM281.574 60.7842C281.574 59.6509 281.801 58.6575 282.254 57.8042C282.721 56.9375 283.361 56.2709 284.174 55.8042C284.987 55.3375 285.921 55.1042 286.974 55.1042C288.307 55.1042 289.407 55.4242 290.274 56.0642C291.154 56.6909 291.747 57.5909 292.054 58.7642H289.594C289.394 58.2175 289.074 57.7909 288.634 57.4842C288.194 57.1775 287.641 57.0242 286.974 57.0242C286.041 57.0242 285.294 57.3575 284.734 58.0242C284.187 58.6775 283.914 59.5975 283.914 60.7842C283.914 61.9709 284.187 62.8975 284.734 63.5642C285.294 64.2309 286.041 64.5642 286.974 64.5642C288.294 64.5642 289.167 63.9842 289.594 62.8242H292.054C291.734 63.9442 291.134 64.8375 290.254 65.5042C289.374 66.1575 288.281 66.4842 286.974 66.4842C285.921 66.4842 284.987 66.2509 284.174 65.7842C283.361 65.3042 282.721 64.6375 282.254 63.7842C281.801 62.9175 281.574 61.9175 281.574 60.7842ZM305.106 55.2842V66.3042H302.826V65.0042C302.466 65.4575 301.993 65.8175 301.406 66.0842C300.833 66.3375 300.219 66.4642 299.566 66.4642C298.699 66.4642 297.919 66.2842 297.226 65.9242C296.546 65.5642 296.006 65.0309 295.606 64.3242C295.219 63.6175 295.026 62.7642 295.026 61.7642V55.2842H297.286V61.4242C297.286 62.4109 297.533 63.1709 298.026 63.7042C298.519 64.2242 299.193 64.4842 300.046 64.4842C300.899 64.4842 301.573 64.2242 302.066 63.7042C302.573 63.1709 302.826 62.4109 302.826 61.4242V55.2842H305.106ZM312.914 66.4842C312.048 66.4842 311.268 66.3309 310.574 66.0242C309.894 65.7042 309.354 65.2775 308.954 64.7442C308.554 64.1975 308.341 63.5909 308.314 62.9242H310.674C310.714 63.3909 310.934 63.7842 311.334 64.1042C311.748 64.4109 312.261 64.5642 312.874 64.5642C313.514 64.5642 314.008 64.4442 314.354 64.2042C314.714 63.9509 314.894 63.6309 314.894 63.2442C314.894 62.8309 314.694 62.5242 314.294 62.3242C313.908 62.1242 313.288 61.9042 312.434 61.6642C311.608 61.4375 310.934 61.2175 310.414 61.0042C309.894 60.7909 309.441 60.4642 309.054 60.0242C308.681 59.5842 308.494 59.0042 308.494 58.2842C308.494 57.6975 308.668 57.1642 309.014 56.6842C309.361 56.1909 309.854 55.8042 310.494 55.5242C311.148 55.2442 311.894 55.1042 312.734 55.1042C313.988 55.1042 314.994 55.4242 315.754 56.0642C316.528 56.6909 316.941 57.5509 316.994 58.6442H314.714C314.674 58.1509 314.474 57.7575 314.114 57.4642C313.754 57.1709 313.268 57.0242 312.654 57.0242C312.054 57.0242 311.594 57.1375 311.274 57.3642C310.954 57.5909 310.794 57.8909 310.794 58.2642C310.794 58.5575 310.901 58.8042 311.114 59.0042C311.328 59.2042 311.588 59.3642 311.894 59.4842C312.201 59.5909 312.654 59.7309 313.254 59.9042C314.054 60.1175 314.708 60.3375 315.214 60.5642C315.734 60.7775 316.181 61.0975 316.554 61.5242C316.928 61.9509 317.121 62.5175 317.134 63.2242C317.134 63.8509 316.961 64.4109 316.614 64.9042C316.268 65.3975 315.774 65.7842 315.134 66.0642C314.508 66.3442 313.768 66.4842 312.914 66.4842ZM323.058 57.1442V63.2442C323.058 63.6575 323.151 63.9575 323.338 64.1442C323.538 64.3175 323.871 64.4042 324.338 64.4042H325.738V66.3042H323.938C322.911 66.3042 322.125 66.0642 321.578 65.5842C321.031 65.1042 320.758 64.3242 320.758 63.2442V57.1442H319.458V55.2842H320.758V52.5442H323.058V55.2842H325.738V57.1442H323.058ZM333.419 66.4842C332.379 66.4842 331.439 66.2509 330.599 65.7842C329.759 65.3042 329.099 64.6375 328.619 63.7842C328.139 62.9175 327.899 61.9175 327.899 60.7842C327.899 59.6642 328.146 58.6709 328.639 57.8042C329.133 56.9375 329.806 56.2709 330.659 55.8042C331.513 55.3375 332.466 55.1042 333.519 55.1042C334.573 55.1042 335.526 55.3375 336.379 55.8042C337.233 56.2709 337.906 56.9375 338.399 57.8042C338.893 58.6709 339.139 59.6642 339.139 60.7842C339.139 61.9042 338.886 62.8975 338.379 63.7642C337.873 64.6309 337.179 65.3042 336.299 65.7842C335.433 66.2509 334.473 66.4842 333.419 66.4842ZM333.419 64.5042C334.006 64.5042 334.553 64.3642 335.059 64.0842C335.579 63.8042 335.999 63.3842 336.319 62.8242C336.639 62.2642 336.799 61.5842 336.799 60.7842C336.799 59.9842 336.646 59.3109 336.339 58.7642C336.033 58.2042 335.626 57.7842 335.119 57.5042C334.613 57.2242 334.066 57.0842 333.479 57.0842C332.893 57.0842 332.346 57.2242 331.839 57.5042C331.346 57.7842 330.953 58.2042 330.659 58.7642C330.366 59.3109 330.219 59.9842 330.219 60.7842C330.219 61.9709 330.519 62.8909 331.119 63.5442C331.733 64.1842 332.499 64.5042 333.419 64.5042ZM355.533 55.1042C356.4 55.1042 357.173 55.2842 357.853 55.6442C358.547 56.0042 359.087 56.5375 359.473 57.2442C359.873 57.9509 360.073 58.8042 360.073 59.8042V66.3042H357.813V60.1442C357.813 59.1575 357.567 58.4042 357.073 57.8842C356.58 57.3509 355.907 57.0842 355.053 57.0842C354.2 57.0842 353.52 57.3509 353.013 57.8842C352.52 58.4042 352.273 59.1575 352.273 60.1442V66.3042H350.013V60.1442C350.013 59.1575 349.767 58.4042 349.273 57.8842C348.78 57.3509 348.107 57.0842 347.253 57.0842C346.4 57.0842 345.72 57.3509 345.213 57.8842C344.72 58.4042 344.473 59.1575 344.473 60.1442V66.3042H342.193V55.2842H344.473V56.5442C344.847 56.0909 345.32 55.7375 345.893 55.4842C346.467 55.2309 347.08 55.1042 347.733 55.1042C348.613 55.1042 349.4 55.2909 350.093 55.6642C350.787 56.0375 351.32 56.5775 351.693 57.2842C352.027 56.6175 352.547 56.0909 353.253 55.7042C353.96 55.3042 354.72 55.1042 355.533 55.1042ZM373.875 60.5242C373.875 60.9375 373.848 61.3109 373.795 61.6442H365.375C365.441 62.5242 365.768 63.2309 366.355 63.7642C366.941 64.2975 367.661 64.5642 368.515 64.5642C369.741 64.5642 370.608 64.0509 371.115 63.0242H373.575C373.241 64.0375 372.635 64.8709 371.755 65.5242C370.888 66.1642 369.808 66.4842 368.515 66.4842C367.461 66.4842 366.515 66.2509 365.675 65.7842C364.848 65.3042 364.195 64.6375 363.715 63.7842C363.248 62.9175 363.015 61.9175 363.015 60.7842C363.015 59.6509 363.241 58.6575 363.695 57.8042C364.161 56.9375 364.808 56.2709 365.635 55.8042C366.475 55.3375 367.435 55.1042 368.515 55.1042C369.555 55.1042 370.481 55.3309 371.295 55.7842C372.108 56.2375 372.741 56.8775 373.195 57.7042C373.648 58.5175 373.875 59.4575 373.875 60.5242ZM371.495 59.8042C371.481 58.9642 371.181 58.2909 370.595 57.7842C370.008 57.2775 369.281 57.0242 368.415 57.0242C367.628 57.0242 366.955 57.2775 366.395 57.7842C365.835 58.2775 365.501 58.9509 365.395 59.8042H371.495ZM379.198 56.8842C379.532 56.3242 379.972 55.8909 380.518 55.5842C381.078 55.2642 381.738 55.1042 382.498 55.1042V57.4642H381.918C381.025 57.4642 380.345 57.6909 379.878 58.1442C379.425 58.5975 379.198 59.3842 379.198 60.5042V66.3042H376.918V55.2842H379.198V56.8842ZM389.394 66.4842C388.527 66.4842 387.747 66.3309 387.054 66.0242C386.374 65.7042 385.834 65.2775 385.434 64.7442C385.034 64.1975 384.821 63.5909 384.794 62.9242H387.154C387.194 63.3909 387.414 63.7842 387.814 64.1042C388.227 64.4109 388.741 64.5642 389.354 64.5642C389.994 64.5642 390.487 64.4442 390.834 64.2042C391.194 63.9509 391.374 63.6309 391.374 63.2442C391.374 62.8309 391.174 62.5242 390.774 62.3242C390.387 62.1242 389.767 61.9042 388.914 61.6642C388.087 61.4375 387.414 61.2175 386.894 61.0042C386.374 60.7909 385.921 60.4642 385.534 60.0242C385.161 59.5842 384.974 59.0042 384.974 58.2842C384.974 57.6975 385.147 57.1642 385.494 56.6842C385.841 56.1909 386.334 55.8042 386.974 55.5242C387.627 55.2442 388.374 55.1042 389.214 55.1042C390.467 55.1042 391.474 55.4242 392.234 56.0642C393.007 56.6909 393.421 57.5509 393.474 58.6442H391.194C391.154 58.1509 390.954 57.7575 390.594 57.4642C390.234 57.1709 389.747 57.0242 389.134 57.0242C388.534 57.0242 388.074 57.1375 387.754 57.3642C387.434 57.5909 387.274 57.8909 387.274 58.2642C387.274 58.5575 387.381 58.8042 387.594 59.0042C387.807 59.2042 388.067 59.3642 388.374 59.4842C388.681 59.5909 389.134 59.7309 389.734 59.9042C390.534 60.1175 391.187 60.3375 391.694 60.5642C392.214 60.7775 392.661 61.0975 393.034 61.5242C393.407 61.9509 393.601 62.5175 393.614 63.2242C393.614 63.8509 393.441 64.4109 393.094 64.9042C392.747 65.3975 392.254 65.7842 391.614 66.0642C390.987 66.3442 390.247 66.4842 389.394 66.4842Z" fill="white"/>
<defs>
<linearGradient id="paint0_linear_51_6555" x1="0.473145" y1="0" x2="432.686" y2="118.662" gradientUnits="userSpaceOnUse">
<stop stop-color="#812DE2"/>
<stop offset="1" stop-color="#3A49F9"/>
</linearGradient>
</defs>
</svg>
