<svg width="433" height="119" viewBox="0 0 433 119" fill="none" xmlns="http://www.w3.org/2000/svg">
<rect x="1" y="1" width="430.394" height="116.002" rx="29" fill="#1C1A50" stroke="url(#paint0_linear_51_6552)" stroke-width="2"/>
<path d="M73.2259 55.3242C73.3059 54.0842 73.7793 53.1175 74.6459 52.4242C75.5259 51.7309 76.6459 51.3842 78.0059 51.3842C78.9393 51.3842 79.7459 51.5509 80.4259 51.8842C81.1059 52.2175 81.6193 52.6709 81.9659 53.2442C82.3126 53.8175 82.4859 54.4642 82.4859 55.1842C82.4859 56.0109 82.2659 56.7175 81.8259 57.3042C81.3859 57.8909 80.8593 58.2842 80.2459 58.4842V58.5642C81.0326 58.8042 81.6459 59.2442 82.0859 59.8842C82.5259 60.5109 82.7459 61.3175 82.7459 62.3042C82.7459 63.0909 82.5659 63.7909 82.2059 64.4042C81.8459 65.0175 81.3126 65.5042 80.6059 65.8642C79.8993 66.2109 79.0526 66.3842 78.0659 66.3842C76.6259 66.3842 75.4393 66.0175 74.5059 65.2842C73.5859 64.5375 73.0926 63.4709 73.0259 62.0842H75.2259C75.2793 62.7909 75.5526 63.3709 76.0459 63.8242C76.5393 64.2642 77.2059 64.4842 78.0459 64.4842C78.8593 64.4842 79.4859 64.2642 79.9259 63.8242C80.3659 63.3709 80.5859 62.7909 80.5859 62.0842C80.5859 61.1509 80.2859 60.4909 79.6859 60.1042C79.0993 59.7042 78.1926 59.5042 76.9659 59.5042H76.4459V57.6242H76.9859C78.0659 57.6109 78.8859 57.4309 79.4459 57.0842C80.0193 56.7375 80.3059 56.1909 80.3059 55.4442C80.3059 54.8042 80.0993 54.2975 79.6859 53.9242C79.2726 53.5375 78.6859 53.3442 77.9259 53.3442C77.1793 53.3442 76.5993 53.5375 76.1859 53.9242C75.7726 54.2975 75.5259 54.7642 75.4459 55.3242H73.2259ZM85.9409 58.8242C85.9409 56.5175 86.3276 54.7175 87.1009 53.4242C87.8876 52.1175 89.2343 51.4642 91.1409 51.4642C93.0476 51.4642 94.3876 52.1175 95.1609 53.4242C95.9476 54.7175 96.3409 56.5175 96.3409 58.8242C96.3409 61.1575 95.9476 62.9842 95.1609 64.3042C94.3876 65.6109 93.0476 66.2642 91.1409 66.2642C89.2343 66.2642 87.8876 65.6109 87.1009 64.3042C86.3276 62.9842 85.9409 61.1575 85.9409 58.8242ZM94.1009 58.8242C94.1009 57.7442 94.0276 56.8309 93.8809 56.0842C93.7476 55.3375 93.4676 54.7309 93.0409 54.2642C92.6143 53.7842 91.9809 53.5442 91.1409 53.5442C90.3009 53.5442 89.6676 53.7842 89.2409 54.2642C88.8143 54.7309 88.5276 55.3375 88.3809 56.0842C88.2476 56.8309 88.1809 57.7442 88.1809 58.8242C88.1809 59.9442 88.2476 60.8842 88.3809 61.6442C88.5143 62.4042 88.7943 63.0175 89.2209 63.4842C89.6609 63.9509 90.3009 64.1842 91.1409 64.1842C91.9809 64.1842 92.6143 63.9509 93.0409 63.4842C93.4809 63.0175 93.7676 62.4042 93.9009 61.6442C94.0343 60.8842 94.1009 59.9442 94.1009 58.8242ZM99.5534 58.8242C99.5534 56.5175 99.9401 54.7175 100.713 53.4242C101.5 52.1175 102.847 51.4642 104.753 51.4642C106.66 51.4642 108 52.1175 108.773 53.4242C109.56 54.7175 109.953 56.5175 109.953 58.8242C109.953 61.1575 109.56 62.9842 108.773 64.3042C108 65.6109 106.66 66.2642 104.753 66.2642C102.847 66.2642 101.5 65.6109 100.713 64.3042C99.9401 62.9842 99.5534 61.1575 99.5534 58.8242ZM107.713 58.8242C107.713 57.7442 107.64 56.8309 107.493 56.0842C107.36 55.3375 107.08 54.7309 106.653 54.2642C106.227 53.7842 105.593 53.5442 104.753 53.5442C103.913 53.5442 103.28 53.7842 102.853 54.2642C102.427 54.7309 102.14 55.3375 101.993 56.0842C101.86 56.8309 101.793 57.7442 101.793 58.8242C101.793 59.9442 101.86 60.8842 101.993 61.6442C102.127 62.4042 102.407 63.0175 102.833 63.4842C103.273 63.9509 103.913 64.1842 104.753 64.1842C105.593 64.1842 106.227 63.9509 106.653 63.4842C107.093 63.0175 107.38 62.4042 107.513 61.6442C107.647 60.8842 107.713 59.9442 107.713 58.8242ZM112.806 55.2442C112.806 54.2709 113.086 53.5109 113.646 52.9642C114.219 52.4042 114.953 52.1242 115.846 52.1242C116.739 52.1242 117.466 52.4042 118.026 52.9642C118.599 53.5109 118.886 54.2709 118.886 55.2442C118.886 56.2175 118.599 56.9842 118.026 57.5442C117.466 58.1042 116.739 58.3842 115.846 58.3842C114.953 58.3842 114.219 58.1042 113.646 57.5442C113.086 56.9842 112.806 56.2175 112.806 55.2442ZM125.006 52.3842L117.026 66.3042H114.786L122.766 52.3842H125.006ZM115.846 53.5042C115.006 53.5042 114.586 54.0842 114.586 55.2442C114.586 56.4175 115.006 57.0042 115.846 57.0042C116.246 57.0042 116.553 56.8642 116.766 56.5842C116.993 56.2909 117.106 55.8442 117.106 55.2442C117.106 54.0842 116.686 53.5042 115.846 53.5042ZM120.946 63.4242C120.946 62.4509 121.226 61.6909 121.786 61.1442C122.359 60.5842 123.093 60.3042 123.986 60.3042C124.866 60.3042 125.586 60.5842 126.146 61.1442C126.719 61.6909 127.006 62.4509 127.006 63.4242C127.006 64.3975 126.719 65.1642 126.146 65.7242C125.586 66.2842 124.866 66.5642 123.986 66.5642C123.093 66.5642 122.359 66.2842 121.786 65.7242C121.226 65.1642 120.946 64.3975 120.946 63.4242ZM123.966 61.6842C123.126 61.6842 122.706 62.2642 122.706 63.4242C122.706 64.5842 123.126 65.1642 123.966 65.1642C124.806 65.1642 125.226 64.5842 125.226 63.4242C125.226 62.2642 124.806 61.6842 123.966 61.6842ZM146.2 56.4042C145.84 55.7109 145.34 55.1909 144.7 54.8442C144.06 54.4842 143.32 54.3042 142.48 54.3042C141.56 54.3042 140.74 54.5109 140.02 54.9242C139.3 55.3375 138.733 55.9242 138.32 56.6842C137.92 57.4442 137.72 58.3242 137.72 59.3242C137.72 60.3242 137.92 61.2109 138.32 61.9842C138.733 62.7442 139.3 63.3309 140.02 63.7442C140.74 64.1575 141.56 64.3642 142.48 64.3642C143.72 64.3642 144.727 64.0175 145.5 63.3242C146.273 62.6309 146.747 61.6909 146.92 60.5042H141.7V58.6842H149.36V60.4642C149.213 61.5442 148.827 62.5375 148.2 63.4442C147.587 64.3509 146.78 65.0775 145.78 65.6242C144.793 66.1575 143.693 66.4242 142.48 66.4242C141.173 66.4242 139.98 66.1242 138.9 65.5242C137.82 64.9109 136.96 64.0642 136.32 62.9842C135.693 61.9042 135.38 60.6842 135.38 59.3242C135.38 57.9642 135.693 56.7442 136.32 55.6642C136.96 54.5842 137.82 53.7442 138.9 53.1442C139.993 52.5309 141.187 52.2242 142.48 52.2242C143.96 52.2242 145.273 52.5909 146.42 53.3242C147.58 54.0442 148.42 55.0709 148.94 56.4042H146.2ZM154.689 56.8842C155.022 56.3242 155.462 55.8909 156.009 55.5842C156.569 55.2642 157.229 55.1042 157.989 55.1042V57.4642H157.409C156.516 57.4642 155.836 57.6909 155.369 58.1442C154.916 58.5975 154.689 59.3842 154.689 60.5042V66.3042H152.409V55.2842H154.689V56.8842ZM165.665 66.4842C164.625 66.4842 163.685 66.2509 162.845 65.7842C162.005 65.3042 161.345 64.6375 160.865 63.7842C160.385 62.9175 160.145 61.9175 160.145 60.7842C160.145 59.6642 160.391 58.6709 160.885 57.8042C161.378 56.9375 162.051 56.2709 162.905 55.8042C163.758 55.3375 164.711 55.1042 165.765 55.1042C166.818 55.1042 167.771 55.3375 168.625 55.8042C169.478 56.2709 170.151 56.9375 170.645 57.8042C171.138 58.6709 171.385 59.6642 171.385 60.7842C171.385 61.9042 171.131 62.8975 170.625 63.7642C170.118 64.6309 169.425 65.3042 168.545 65.7842C167.678 66.2509 166.718 66.4842 165.665 66.4842ZM165.665 64.5042C166.251 64.5042 166.798 64.3642 167.305 64.0842C167.825 63.8042 168.245 63.3842 168.565 62.8242C168.885 62.2642 169.045 61.5842 169.045 60.7842C169.045 59.9842 168.891 59.3109 168.585 58.7642C168.278 58.2042 167.871 57.7842 167.365 57.5042C166.858 57.2242 166.311 57.0842 165.725 57.0842C165.138 57.0842 164.591 57.2242 164.085 57.5042C163.591 57.7842 163.198 58.2042 162.905 58.7642C162.611 59.3109 162.465 59.9842 162.465 60.7842C162.465 61.9709 162.765 62.8909 163.365 63.5442C163.978 64.1842 164.745 64.5042 165.665 64.5042ZM189.239 55.2842L185.819 66.3042H183.419L181.199 58.1642L178.979 66.3042H176.579L173.139 55.2842H175.459L177.759 64.1442L180.099 55.2842H182.479L184.719 64.1042L186.999 55.2842H189.239ZM194.402 57.1442V63.2442C194.402 63.6575 194.496 63.9575 194.682 64.1442C194.882 64.3175 195.216 64.4042 195.682 64.4042H197.082V66.3042H195.282C194.256 66.3042 193.469 66.0642 192.922 65.5842C192.376 65.1042 192.102 64.3242 192.102 63.2442V57.1442H190.802V55.2842H192.102V52.5442H194.402V55.2842H197.082V57.1442H194.402ZM205.684 55.1042C206.524 55.1042 207.271 55.2842 207.924 55.6442C208.591 56.0042 209.111 56.5375 209.484 57.2442C209.871 57.9509 210.064 58.8042 210.064 59.8042V66.3042H207.804V60.1442C207.804 59.1575 207.557 58.4042 207.064 57.8842C206.571 57.3509 205.897 57.0842 205.044 57.0842C204.191 57.0842 203.511 57.3509 203.004 57.8842C202.511 58.4042 202.264 59.1575 202.264 60.1442V66.3042H199.984V51.5042H202.264V56.5642C202.651 56.0975 203.137 55.7375 203.724 55.4842C204.324 55.2309 204.977 55.1042 205.684 55.1042ZM220.927 53.8242C220.514 53.8242 220.167 53.6842 219.887 53.4042C219.607 53.1242 219.467 52.7775 219.467 52.3642C219.467 51.9509 219.607 51.6042 219.887 51.3242C220.167 51.0442 220.514 50.9042 220.927 50.9042C221.327 50.9042 221.667 51.0442 221.947 51.3242C222.227 51.6042 222.367 51.9509 222.367 52.3642C222.367 52.7775 222.227 53.1242 221.947 53.4042C221.667 53.6842 221.327 53.8242 220.927 53.8242ZM222.047 55.2842V66.3042H219.767V55.2842H222.047ZM231.401 55.1042C232.268 55.1042 233.041 55.2842 233.721 55.6442C234.414 56.0042 234.954 56.5375 235.341 57.2442C235.728 57.9509 235.921 58.8042 235.921 59.8042V66.3042H233.661V60.1442C233.661 59.1575 233.414 58.4042 232.921 57.8842C232.428 57.3509 231.754 57.0842 230.901 57.0842C230.048 57.0842 229.368 57.3509 228.861 57.8842C228.368 58.4042 228.121 59.1575 228.121 60.1442V66.3042H225.841V55.2842H228.121V56.5442C228.494 56.0909 228.968 55.7375 229.541 55.4842C230.128 55.2309 230.748 55.1042 231.401 55.1042ZM250.245 57.1442H248.205V66.3042H245.905V57.1442H244.605V55.2842H245.905V54.5042C245.905 53.2375 246.238 52.3175 246.905 51.7442C247.585 51.1575 248.645 50.8642 250.085 50.8642V52.7642C249.391 52.7642 248.905 52.8975 248.625 53.1642C248.345 53.4175 248.205 53.8642 248.205 54.5042V55.2842H250.245V57.1442ZM254.225 53.8242C253.812 53.8242 253.465 53.6842 253.185 53.4042C252.905 53.1242 252.765 52.7775 252.765 52.3642C252.765 51.9509 252.905 51.6042 253.185 51.3242C253.465 51.0442 253.812 50.9042 254.225 50.9042C254.625 50.9042 254.965 51.0442 255.245 51.3242C255.525 51.6042 255.665 51.9509 255.665 52.3642C255.665 52.7775 255.525 53.1242 255.245 53.4042C254.965 53.6842 254.625 53.8242 254.225 53.8242ZM255.345 55.2842V66.3042H253.065V55.2842H255.345ZM261.419 56.8842C261.752 56.3242 262.192 55.8909 262.739 55.5842C263.299 55.2642 263.959 55.1042 264.719 55.1042V57.4642H264.139C263.245 57.4642 262.565 57.6909 262.099 58.1442C261.645 58.5975 261.419 59.3842 261.419 60.5042V66.3042H259.139V55.2842H261.419V56.8842ZM271.614 66.4842C270.748 66.4842 269.968 66.3309 269.274 66.0242C268.594 65.7042 268.054 65.2775 267.654 64.7442C267.254 64.1975 267.041 63.5909 267.014 62.9242H269.374C269.414 63.3909 269.634 63.7842 270.034 64.1042C270.448 64.4109 270.961 64.5642 271.574 64.5642C272.214 64.5642 272.708 64.4442 273.054 64.2042C273.414 63.9509 273.594 63.6309 273.594 63.2442C273.594 62.8309 273.394 62.5242 272.994 62.3242C272.608 62.1242 271.988 61.9042 271.134 61.6642C270.308 61.4375 269.634 61.2175 269.114 61.0042C268.594 60.7909 268.141 60.4642 267.754 60.0242C267.381 59.5842 267.194 59.0042 267.194 58.2842C267.194 57.6975 267.368 57.1642 267.714 56.6842C268.061 56.1909 268.554 55.8042 269.194 55.5242C269.848 55.2442 270.594 55.1042 271.434 55.1042C272.688 55.1042 273.694 55.4242 274.454 56.0642C275.228 56.6909 275.641 57.5509 275.694 58.6442H273.414C273.374 58.1509 273.174 57.7575 272.814 57.4642C272.454 57.1709 271.968 57.0242 271.354 57.0242C270.754 57.0242 270.294 57.1375 269.974 57.3642C269.654 57.5909 269.494 57.8909 269.494 58.2642C269.494 58.5575 269.601 58.8042 269.814 59.0042C270.028 59.2042 270.288 59.3642 270.594 59.4842C270.901 59.5909 271.354 59.7309 271.954 59.9042C272.754 60.1175 273.408 60.3375 273.914 60.5642C274.434 60.7775 274.881 61.0975 275.254 61.5242C275.628 61.9509 275.821 62.5175 275.834 63.2242C275.834 63.8509 275.661 64.4109 275.314 64.9042C274.968 65.3975 274.474 65.7842 273.834 66.0642C273.208 66.3442 272.468 66.4842 271.614 66.4842ZM281.758 57.1442V63.2442C281.758 63.6575 281.851 63.9575 282.038 64.1442C282.238 64.3175 282.571 64.4042 283.038 64.4042H284.438V66.3042H282.638C281.611 66.3042 280.825 66.0642 280.278 65.5842C279.731 65.1042 279.458 64.3242 279.458 63.2442V57.1442H278.158V55.2842H279.458V52.5442H281.758V55.2842H284.438V57.1442H281.758ZM303.255 55.2842L296.495 71.4842H294.135L296.375 66.1242L292.035 55.2842H294.575L297.675 63.6842L300.895 55.2842H303.255ZM315.875 60.5242C315.875 60.9375 315.849 61.3109 315.795 61.6442H307.375C307.442 62.5242 307.769 63.2309 308.355 63.7642C308.942 64.2975 309.662 64.5642 310.515 64.5642C311.742 64.5642 312.609 64.0509 313.115 63.0242H315.575C315.242 64.0375 314.635 64.8709 313.755 65.5242C312.889 66.1642 311.809 66.4842 310.515 66.4842C309.462 66.4842 308.515 66.2509 307.675 65.7842C306.849 65.3042 306.195 64.6375 305.715 63.7842C305.249 62.9175 305.015 61.9175 305.015 60.7842C305.015 59.6509 305.242 58.6575 305.695 57.8042C306.162 56.9375 306.809 56.2709 307.635 55.8042C308.475 55.3375 309.435 55.1042 310.515 55.1042C311.555 55.1042 312.482 55.3309 313.295 55.7842C314.109 56.2375 314.742 56.8775 315.195 57.7042C315.649 58.5175 315.875 59.4575 315.875 60.5242ZM313.495 59.8042C313.482 58.9642 313.182 58.2909 312.595 57.7842C312.009 57.2775 311.282 57.0242 310.415 57.0242C309.629 57.0242 308.955 57.2775 308.395 57.7842C307.835 58.2775 307.502 58.9509 307.395 59.8042H313.495ZM318.159 60.7442C318.159 59.6375 318.386 58.6575 318.839 57.8042C319.306 56.9509 319.932 56.2909 320.719 55.8242C321.519 55.3442 322.399 55.1042 323.359 55.1042C324.226 55.1042 324.979 55.2775 325.619 55.6242C326.272 55.9575 326.792 56.3775 327.179 56.8842V55.2842H329.479V66.3042H327.179V64.6642C326.792 65.1842 326.266 65.6175 325.599 65.9642C324.932 66.3109 324.172 66.4842 323.319 66.4842C322.372 66.4842 321.506 66.2442 320.719 65.7642C319.932 65.2709 319.306 64.5909 318.839 63.7242C318.386 62.8442 318.159 61.8509 318.159 60.7442ZM327.179 60.7842C327.179 60.0242 327.019 59.3642 326.699 58.8042C326.392 58.2442 325.986 57.8175 325.479 57.5242C324.972 57.2309 324.426 57.0842 323.839 57.0842C323.252 57.0842 322.706 57.2309 322.199 57.5242C321.692 57.8042 321.279 58.2242 320.959 58.7842C320.652 59.3309 320.499 59.9842 320.499 60.7442C320.499 61.5042 320.652 62.1709 320.959 62.7442C321.279 63.3175 321.692 63.7575 322.199 64.0642C322.719 64.3575 323.266 64.5042 323.839 64.5042C324.426 64.5042 324.972 64.3575 325.479 64.0642C325.986 63.7709 326.392 63.3442 326.699 62.7842C327.019 62.2109 327.179 61.5442 327.179 60.7842ZM335.554 56.8842C335.887 56.3242 336.327 55.8909 336.874 55.5842C337.434 55.2642 338.094 55.1042 338.854 55.1042V57.4642H338.274C337.38 57.4642 336.7 57.6909 336.234 58.1442C335.78 58.5975 335.554 59.3842 335.554 60.5042V66.3042H333.274V55.2842H335.554V56.8842Z" fill="white"/>
<defs>
<linearGradient id="paint0_linear_51_6552" x1="0" y1="0" x2="432.213" y2="118.662" gradientUnits="userSpaceOnUse">
<stop stop-color="#812DE2"/>
<stop offset="1" stop-color="#3A49F9"/>
</linearGradient>
</defs>
</svg>
