<svg width="163" height="18" viewBox="0 0 163 18" fill="none" xmlns="http://www.w3.org/2000/svg">
<path d="M12.716 6.11C12.32 5.34733 11.77 4.77533 11.066 4.394C10.362 3.998 9.548 3.8 8.624 3.8C7.612 3.8 6.71 4.02733 5.918 4.482C5.126 4.93667 4.50267 5.582 4.048 6.418C3.608 7.254 3.388 8.222 3.388 9.322C3.388 10.422 3.608 11.3973 4.048 12.248C4.50267 13.084 5.126 13.7293 5.918 14.184C6.71 14.6387 7.612 14.866 8.624 14.866C9.988 14.866 11.0953 14.4847 11.946 13.722C12.7967 12.9593 13.3173 11.9253 13.508 10.62H7.766V8.618H16.192V10.576C16.0307 11.764 15.6053 12.8567 14.916 13.854C14.2413 14.8513 13.354 15.6507 12.254 16.252C11.1687 16.8387 9.95867 17.132 8.624 17.132C7.18667 17.132 5.874 16.802 4.686 16.142C3.498 15.4673 2.552 14.536 1.848 13.348C1.15867 12.16 0.814 10.818 0.814 9.322C0.814 7.826 1.15867 6.484 1.848 5.296C2.552 4.108 3.498 3.184 4.686 2.524C5.88867 1.84933 7.20133 1.512 8.624 1.512C10.252 1.512 11.6967 1.91533 12.958 2.722C14.234 3.514 15.158 4.64333 15.73 6.11H12.716ZM22.0536 6.638C22.4203 6.022 22.9043 5.54533 23.5056 5.208C24.1216 4.856 24.8476 4.68 25.6836 4.68V7.276H25.0456C24.063 7.276 23.315 7.52533 22.8016 8.024C22.303 8.52267 22.0536 9.388 22.0536 10.62V17H19.5456V4.878H22.0536V6.638ZM34.127 17.198C32.983 17.198 31.949 16.9413 31.025 16.428C30.101 15.9 29.375 15.1667 28.847 14.228C28.319 13.2747 28.055 12.1747 28.055 10.928C28.055 9.696 28.3263 8.60333 28.869 7.65C29.4117 6.69667 30.1523 5.96333 31.091 5.45C32.0297 4.93667 33.0783 4.68 34.237 4.68C35.3957 4.68 36.4443 4.93667 37.383 5.45C38.3217 5.96333 39.0623 6.69667 39.605 7.65C40.1477 8.60333 40.419 9.696 40.419 10.928C40.419 12.16 40.1403 13.2527 39.583 14.206C39.0257 15.1593 38.263 15.9 37.295 16.428C36.3417 16.9413 35.2857 17.198 34.127 17.198ZM34.127 15.02C34.7723 15.02 35.3737 14.866 35.931 14.558C36.503 14.25 36.965 13.788 37.317 13.172C37.669 12.556 37.845 11.808 37.845 10.928C37.845 10.048 37.6763 9.30733 37.339 8.706C37.0017 8.09 36.5543 7.628 35.997 7.32C35.4397 7.012 34.8383 6.858 34.193 6.858C33.5477 6.858 32.9463 7.012 32.389 7.32C31.8463 7.628 31.4137 8.09 31.091 8.706C30.7683 9.30733 30.607 10.048 30.607 10.928C30.607 12.2333 30.937 13.2453 31.597 13.964C32.2717 14.668 33.115 15.02 34.127 15.02ZM60.0583 4.878L56.2963 17H53.6563L51.2143 8.046L48.7723 17H46.1323L42.3483 4.878H44.9003L47.4303 14.624L50.0043 4.878H52.6223L55.0863 14.58L57.5943 4.878H60.0583ZM65.7386 6.924V13.634C65.7386 14.0887 65.8412 14.4187 66.0466 14.624C66.2666 14.8147 66.6332 14.91 67.1466 14.91H68.6866V17H66.7066C65.5772 17 64.7119 16.736 64.1106 16.208C63.5092 15.68 63.2086 14.822 63.2086 13.634V6.924H61.7786V4.878H63.2086V1.864H65.7386V4.878H68.6866V6.924H65.7386ZM78.1481 4.68C79.0721 4.68 79.8935 4.878 80.6121 5.274C81.3455 5.67 81.9175 6.25667 82.3281 7.034C82.7535 7.81133 82.9661 8.75 82.9661 9.85V17H80.4801V10.224C80.4801 9.13867 80.2088 8.31 79.6661 7.738C79.1235 7.15133 78.3828 6.858 77.4441 6.858C76.5055 6.858 75.7575 7.15133 75.2001 7.738C74.6575 8.31 74.3861 9.13867 74.3861 10.224V17H71.8781V0.72H74.3861V6.286C74.8115 5.77267 75.3468 5.37667 75.9921 5.098C76.6521 4.81933 77.3708 4.68 78.1481 4.68ZM104.332 6.264C104.332 7.04133 104.149 7.77467 103.782 8.464C103.415 9.15333 102.829 9.718 102.022 10.158C101.215 10.5833 100.181 10.796 98.9201 10.796H96.1481V17H93.6401V1.71H98.9201C100.093 1.71 101.083 1.91533 101.89 2.326C102.711 2.722 103.32 3.26467 103.716 3.954C104.127 4.64333 104.332 5.41333 104.332 6.264ZM98.9201 8.75C99.8734 8.75 100.585 8.53733 101.054 8.112C101.523 7.672 101.758 7.056 101.758 6.264C101.758 4.592 100.812 3.756 98.9201 3.756H96.1481V8.75H98.9201ZM113.874 4.68C114.798 4.68 115.619 4.878 116.338 5.274C117.071 5.67 117.643 6.25667 118.054 7.034C118.479 7.81133 118.692 8.75 118.692 9.85V17H116.206V10.224C116.206 9.13867 115.935 8.31 115.392 7.738C114.849 7.15133 114.109 6.858 113.17 6.858C112.231 6.858 111.483 7.15133 110.926 7.738C110.383 8.31 110.112 9.13867 110.112 10.224V17H107.604V0.72H110.112V6.286C110.537 5.77267 111.073 5.37667 111.718 5.098C112.378 4.81933 113.097 4.68 113.874 4.68ZM121.935 10.884C121.935 9.66667 122.185 8.58867 122.683 7.65C123.197 6.71133 123.886 5.98533 124.751 5.472C125.631 4.944 126.599 4.68 127.655 4.68C128.609 4.68 129.437 4.87067 130.141 5.252C130.86 5.61867 131.432 6.08067 131.857 6.638V4.878H134.387V17H131.857V15.196C131.432 15.768 130.853 16.2447 130.119 16.626C129.386 17.0073 128.55 17.198 127.611 17.198C126.57 17.198 125.617 16.934 124.751 16.406C123.886 15.8633 123.197 15.1153 122.683 14.162C122.185 13.194 121.935 12.1013 121.935 10.884ZM131.857 10.928C131.857 10.092 131.681 9.366 131.329 8.75C130.992 8.134 130.545 7.66467 129.987 7.342C129.43 7.01933 128.829 6.858 128.183 6.858C127.538 6.858 126.937 7.01933 126.379 7.342C125.822 7.65 125.367 8.112 125.015 8.728C124.678 9.32933 124.509 10.048 124.509 10.884C124.509 11.72 124.678 12.4533 125.015 13.084C125.367 13.7147 125.822 14.1987 126.379 14.536C126.951 14.8587 127.553 15.02 128.183 15.02C128.829 15.02 129.43 14.8587 129.987 14.536C130.545 14.2133 130.992 13.744 131.329 13.128C131.681 12.4973 131.857 11.764 131.857 10.928ZM142.961 17.198C142.008 17.198 141.15 17.0293 140.387 16.692C139.639 16.34 139.045 15.8707 138.605 15.284C138.165 14.6827 137.931 14.0153 137.901 13.282H140.497C140.541 13.7953 140.783 14.228 141.223 14.58C141.678 14.9173 142.243 15.086 142.917 15.086C143.621 15.086 144.164 14.954 144.545 14.69C144.941 14.4113 145.139 14.0593 145.139 13.634C145.139 13.1793 144.919 12.842 144.479 12.622C144.054 12.402 143.372 12.16 142.433 11.896C141.524 11.6467 140.783 11.4047 140.211 11.17C139.639 10.9353 139.141 10.576 138.715 10.092C138.305 9.608 138.099 8.97 138.099 8.178C138.099 7.53267 138.29 6.946 138.671 6.418C139.053 5.87533 139.595 5.45 140.299 5.142C141.018 4.834 141.839 4.68 142.763 4.68C144.142 4.68 145.249 5.032 146.085 5.736C146.936 6.42533 147.391 7.37133 147.449 8.574H144.941C144.897 8.03133 144.677 7.59867 144.281 7.276C143.885 6.95333 143.35 6.792 142.675 6.792C142.015 6.792 141.509 6.91667 141.157 7.166C140.805 7.41533 140.629 7.74533 140.629 8.156C140.629 8.47867 140.747 8.75 140.981 8.97C141.216 9.19 141.502 9.366 141.839 9.498C142.177 9.61533 142.675 9.76933 143.335 9.96C144.215 10.1947 144.934 10.4367 145.491 10.686C146.063 10.9207 146.555 11.2727 146.965 11.742C147.376 12.2113 147.589 12.8347 147.603 13.612C147.603 14.3013 147.413 14.9173 147.031 15.46C146.65 16.0027 146.107 16.428 145.403 16.736C144.714 17.044 143.9 17.198 142.961 17.198ZM162.303 10.642C162.303 11.0967 162.274 11.5073 162.215 11.874H152.953C153.027 12.842 153.386 13.6193 154.031 14.206C154.677 14.7927 155.469 15.086 156.407 15.086C157.757 15.086 158.71 14.5213 159.267 13.392H161.973C161.607 14.5067 160.939 15.4233 159.971 16.142C159.018 16.846 157.83 17.198 156.407 17.198C155.249 17.198 154.207 16.9413 153.283 16.428C152.374 15.9 151.655 15.1667 151.127 14.228C150.614 13.2747 150.357 12.1747 150.357 10.928C150.357 9.68133 150.607 8.58867 151.105 7.65C151.619 6.69667 152.33 5.96333 153.239 5.45C154.163 4.93667 155.219 4.68 156.407 4.68C157.551 4.68 158.571 4.92933 159.465 5.428C160.36 5.92667 161.057 6.63067 161.555 7.54C162.054 8.43467 162.303 9.46867 162.303 10.642ZM159.685 9.85C159.671 8.926 159.341 8.18533 158.695 7.628C158.05 7.07067 157.251 6.792 156.297 6.792C155.432 6.792 154.691 7.07067 154.075 7.628C153.459 8.17067 153.093 8.91133 152.975 9.85H159.685Z" fill="white"/>
</svg>
