<svg width="184" height="723" viewBox="0 0 184 723" fill="none" xmlns="http://www.w3.org/2000/svg">
<g clip-path="url(#clip0_54_7722)">
<path d="M148.012 83.361H171.012V11.061L12.9881 11.061V83.361H35.9881C35.9881 68.5503 41.8897 54.3461 52.3939 43.8736C62.8981 33.4009 77.1446 27.5174 91.9999 27.5174C106.855 27.5174 121.102 33.4009 131.606 43.8736C142.11 54.3461 148.012 68.5503 148.012 83.361Z" fill="white" fill-opacity="0.3"/>
<path d="M148.012 83.3608H35.9881C35.9881 98.1715 41.8897 112.376 52.3939 122.849C62.8981 133.321 77.1446 139.204 91.9999 139.204C106.855 139.204 121.102 133.321 131.606 122.849C142.11 112.376 148.012 98.1715 148.012 83.3608Z" fill="white" fill-opacity="0.3"/>
<path d="M133.941 179.779V195.965H55.7414V179.779H133.941Z" fill="white" fill-opacity="0.3"/>
<path d="M82.5293 205.03C88.1553 205.03 93.6548 206.695 98.3305 209.815C103.006 212.935 106.648 217.368 108.794 222.554C110.939 227.74 111.492 233.443 110.383 238.942C109.273 244.441 106.551 249.488 102.561 253.443C98.5714 257.398 93.494 260.084 87.9719 261.158C82.4497 262.233 76.7322 261.649 71.5434 259.48C66.3551 257.311 61.9288 253.655 58.8268 248.976C55.7243 244.296 54.0856 238.804 54.1175 233.195C54.0883 229.474 54.8043 225.785 56.2243 222.345C57.6438 218.904 59.7382 215.78 62.384 213.157C65.0303 210.533 68.1757 208.464 71.6348 207.068C75.0941 205.672 78.7979 204.98 82.5293 205.03ZM82.5293 245.604C84.9548 245.541 87.3079 244.765 89.2934 243.375C91.2796 241.985 92.8105 240.043 93.6948 237.79C94.5791 235.537 94.7777 233.075 94.2652 230.71C93.7533 228.346 92.5535 226.184 90.8152 224.496C89.0775 222.808 86.8792 221.668 84.4948 221.219C82.1104 220.77 79.6464 221.031 77.4108 221.971C75.1752 222.911 73.2665 224.487 71.9249 226.503C70.5828 228.518 69.8668 230.883 69.8657 233.302C69.8333 234.95 70.1423 236.586 70.7733 238.108C71.4038 239.631 72.3427 241.007 73.5311 242.152C74.7196 243.296 76.1326 244.184 77.6803 244.759C79.2286 245.335 80.8792 245.586 82.5293 245.496V245.604Z" fill="white" fill-opacity="0.3"/>
<path d="M109.317 325.404H58.3927C40.4257 325.404 32.7951 311.376 32.7951 297.185C32.3832 292.18 33.3806 287.159 35.6752 282.689C37.9698 278.219 41.4706 274.475 45.7833 271.88L53.6845 285.531C51.4472 286.637 49.6018 288.397 48.3934 290.575C47.1849 292.754 46.6708 295.248 46.9198 297.725C46.7249 299.303 46.8819 300.905 47.3798 302.415C47.8782 303.925 48.7046 305.307 49.801 306.462C50.8974 307.617 52.2357 308.516 53.7213 309.095C55.2063 309.674 56.8017 309.918 58.3927 309.811H63.3174C61.0266 307.927 59.2083 305.537 58.0058 302.831C56.8033 300.124 56.2502 297.175 56.3904 294.218C56.3904 287.063 59.2413 280.201 64.3159 275.142C69.39 270.083 76.2726 267.24 83.4492 267.24C90.6257 267.24 97.5079 270.083 102.582 275.142C107.657 280.201 110.508 287.063 110.508 294.218C110.648 297.175 110.095 300.124 108.893 302.831C107.69 305.537 105.872 307.927 103.581 309.811H108.993L109.317 325.404ZM83.6115 309.811C86.2005 309.918 88.763 309.251 90.9688 307.895C93.1747 306.54 94.9232 304.557 95.9899 302.202C97.0565 299.848 97.392 297.229 96.9537 294.682C96.5153 292.136 95.3231 289.778 93.5302 287.913C91.7373 286.048 89.4254 284.76 86.8921 284.215C84.3589 283.67 81.7207 283.893 79.3157 284.855C76.9107 285.818 74.8493 287.475 73.3968 289.614C71.9443 291.754 71.1666 294.278 71.1645 296.862C71.0427 298.548 71.277 300.24 71.8518 301.83C72.427 303.42 73.3303 304.872 74.5035 306.092C75.6763 307.313 77.0931 308.274 78.6619 308.915C80.2308 309.555 81.9171 309.861 83.6115 309.811Z" fill="white" fill-opacity="0.3"/>
<path d="M82.5295 334.522C88.1513 334.522 93.6464 336.185 98.32 339.3C102.994 342.415 106.635 346.842 108.784 352.021C110.933 357.2 111.492 362.899 110.391 368.395C109.291 373.891 106.579 378.938 102.601 382.898C98.6214 386.857 93.5538 389.551 88.0393 390.637C82.5241 391.725 76.8098 391.156 71.6194 389.004C66.4285 386.851 61.9951 383.212 58.8796 378.547C55.764 373.882 54.107 368.4 54.1178 362.795C54.0815 359.068 54.7921 355.37 56.2078 351.92C57.6235 348.47 59.7157 345.337 62.3621 342.704C65.0084 340.07 68.1554 337.99 71.6183 336.585C75.0813 335.181 78.7911 334.479 82.5295 334.522ZM82.5295 375.097C84.9573 375.033 87.3125 374.256 89.2997 372.864C91.2863 371.472 92.8173 369.526 93.7 367.27C94.5826 365.014 94.778 362.549 94.2612 360.183C93.7449 357.817 92.5391 355.656 90.796 353.969C89.0529 352.283 86.8492 351.148 84.4615 350.705C82.0739 350.262 79.6083 350.531 77.3738 351.479C75.1387 352.427 73.2343 354.012 71.8987 356.035C70.5636 358.057 69.8563 360.427 69.866 362.849C69.8335 364.496 70.1425 366.132 70.7736 367.655C71.404 369.177 72.343 370.554 73.5314 371.698C74.7198 372.842 76.1328 373.73 77.6806 374.306C79.2289 374.881 80.8795 375.132 82.5295 375.043V375.097Z" fill="white" fill-opacity="0.3"/>
<path d="M123.659 398.567C125.564 398.567 127.427 399.131 129.011 400.186C130.595 401.241 131.83 402.741 132.559 404.496C133.288 406.251 133.479 408.182 133.107 410.045C132.735 411.908 131.818 413.619 130.471 414.963C129.123 416.306 127.407 417.22 125.539 417.591C123.67 417.962 121.733 417.771 119.973 417.044C118.213 416.318 116.708 415.086 115.65 413.507C114.591 411.928 114.026 410.071 114.026 408.171C114.054 405.633 115.078 403.206 116.879 401.411C118.679 399.616 121.113 398.595 123.659 398.567ZM109.318 400.132V416.319H55.7414V400.132H109.318Z" fill="white" fill-opacity="0.3"/>
<path d="M82.5294 485.597C78.9663 485.778 75.4021 485.256 72.0425 484.058C68.6829 482.862 65.5938 481.014 62.9534 478.622C60.3125 476.229 58.1727 473.341 56.6563 470.121C55.1399 466.901 54.2773 463.414 54.1176 459.86C53.9163 456.845 54.4007 453.823 55.5344 451.02C56.6687 448.217 58.4227 445.706 60.6659 443.674H34.2023V427.487H109.318V443.674H104.285C106.521 445.709 108.267 448.222 109.392 451.025C110.517 453.828 110.991 456.849 110.779 459.86C110.619 463.4 109.761 466.873 108.255 470.082C106.749 473.29 104.623 476.172 102 478.562C99.3773 480.952 96.3077 482.803 92.9665 484.01C89.6258 485.217 86.0795 485.757 82.5294 485.597ZM82.5294 469.41C85.0432 469.347 87.4817 468.545 89.5398 467.105C91.5979 465.665 93.1846 463.652 94.0998 461.317C95.0154 458.983 95.2189 456.43 94.6858 453.98C94.1528 451.531 92.9059 449.293 91.1022 447.546C89.2984 445.8 87.0179 444.623 84.5458 444.164C82.0743 443.704 79.5215 443.982 77.2075 444.963C74.8939 445.944 72.9219 447.583 71.5386 449.677C70.1554 451.77 69.4232 454.224 69.4329 456.731C69.3599 458.448 69.6516 460.161 70.2891 461.757C70.9266 463.355 71.8953 464.799 73.1319 465.996C74.3685 467.193 75.8453 468.116 77.4645 468.705C79.0843 469.293 80.8101 469.534 82.5294 469.41Z" fill="white" fill-opacity="0.3"/>
<path d="M71.814 534.858C59.4752 534.858 54.2257 524.067 54.2257 512.628C53.8047 507.963 54.7967 503.279 57.0734 499.182C59.3501 495.084 62.8072 491.762 66.9975 489.644L74.8987 503.564C72.9678 504.115 71.2852 505.311 70.1325 506.951C68.9798 508.592 68.4273 510.577 68.5669 512.575C68.5669 516.405 69.7575 518.348 71.9222 518.348C77.821 518.348 74.6822 492.072 93.2446 492.072C104.934 492.072 110.779 501.891 110.779 513.006C110.969 517.231 110.007 521.429 107.997 525.152C105.986 528.876 103.001 531.988 99.3599 534.157L91.9999 520.236C93.3961 519.621 94.5834 518.616 95.419 517.343C96.2546 516.069 96.7022 514.582 96.7081 513.06C96.7081 510.254 95.6257 508.582 93.7316 508.582C87.5622 508.582 91.621 534.858 71.814 534.858Z" fill="white" fill-opacity="0.3"/>
<path d="M109.318 593.507H55.7414V577.321H60.7743C58.5463 575.481 56.7837 573.145 55.6272 570.506C54.4707 567.862 53.9539 564.986 54.1179 562.105C54.1179 551.314 61.8567 542.088 76.3061 542.088H109.318V558.274H78.7414C77.4631 558.145 76.1724 558.296 74.958 558.717C73.7442 559.138 72.6359 559.812 71.7094 560.697C70.7834 561.587 70.0615 562.666 69.5934 563.859C69.1258 565.051 68.9234 566.33 69.0002 567.609C69.0002 573.436 72.4638 577.536 79.8238 577.536H109.318V593.507Z" fill="white" fill-opacity="0.3"/>
<path d="M88.6448 685.231H55.7413V669.045H87.2377C92.6495 669.045 96.0048 666.509 96.0048 661.383C96.0048 656.257 92.2707 653.02 85.9389 653.02H55.7413V636.833H87.2377C92.6495 636.833 96.0048 634.297 96.0048 629.172C96.0048 624.046 92.2707 620.809 85.9389 620.809H55.7413V604.622H109.318V620.809H104.393C106.569 622.487 108.292 624.672 109.406 627.181C110.521 629.684 110.993 632.431 110.779 635.161C110.922 637.896 110.349 640.626 109.115 643.076C107.882 645.526 106.031 647.614 103.744 649.135C106.133 650.916 108.032 653.268 109.262 655.977C110.493 658.68 111.014 661.658 110.779 664.62C110.779 677.246 102.012 685.231 88.6448 685.231Z" fill="white" fill-opacity="0.3"/>
<path d="M109.642 698.828C109.642 705.384 114.973 710.698 121.548 710.698C128.124 710.698 133.454 705.384 133.454 698.828C133.454 692.273 128.124 686.958 121.548 686.958C114.973 686.958 109.642 692.273 109.642 698.828Z" fill="white" fill-opacity="0.3"/>
</g>
<defs>
<clipPath id="clip0_54_7722">
<rect width="723" height="184" fill="white" transform="matrix(0 1 -1 0 184 0)"/>
</clipPath>
</defs>
</svg>
