<svg width="60" height="18" viewBox="0 0 60 18" fill="none" xmlns="http://www.w3.org/2000/svg">
<path d="M11.342 6.264C11.342 7.04133 11.1587 7.77467 10.792 8.464C10.4253 9.15333 9.83867 9.718 9.032 10.158C8.22533 10.5833 7.19133 10.796 5.93 10.796H3.158V17H0.65V1.71H5.93C7.10333 1.71 8.09333 1.91533 8.9 2.326C9.72133 2.722 10.33 3.26467 10.726 3.954C11.1367 4.64333 11.342 5.41333 11.342 6.264ZM5.93 8.75C6.88333 8.75 7.59467 8.53733 8.064 8.112C8.53333 7.672 8.768 7.056 8.768 6.264C8.768 4.592 7.822 3.756 5.93 3.756H3.158V8.75H5.93ZM17.122 6.638C17.4887 6.022 17.9727 5.54533 18.574 5.208C19.19 4.856 19.916 4.68 20.752 4.68V7.276H20.114C19.1313 7.276 18.3833 7.52533 17.87 8.024C17.3713 8.52267 17.122 9.388 17.122 10.62V17H14.614V4.878H17.122V6.638ZM29.1953 17.198C28.0513 17.198 27.0173 16.9413 26.0933 16.428C25.1693 15.9 24.4433 15.1667 23.9153 14.228C23.3873 13.2747 23.1233 12.1747 23.1233 10.928C23.1233 9.696 23.3947 8.60333 23.9373 7.65C24.48 6.69667 25.2207 5.96333 26.1593 5.45C27.098 4.93667 28.1467 4.68 29.3053 4.68C30.464 4.68 31.5127 4.93667 32.4513 5.45C33.39 5.96333 34.1307 6.69667 34.6733 7.65C35.216 8.60333 35.4873 9.696 35.4873 10.928C35.4873 12.16 35.2087 13.2527 34.6513 14.206C34.094 15.1593 33.3313 15.9 32.3633 16.428C31.41 16.9413 30.354 17.198 29.1953 17.198ZM29.1953 15.02C29.8407 15.02 30.442 14.866 30.9993 14.558C31.5713 14.25 32.0333 13.788 32.3853 13.172C32.7373 12.556 32.9133 11.808 32.9133 10.928C32.9133 10.048 32.7447 9.30733 32.4073 8.706C32.07 8.09 31.6227 7.628 31.0653 7.32C30.508 7.012 29.9067 6.858 29.2613 6.858C28.616 6.858 28.0147 7.012 27.4573 7.32C26.9147 7.628 26.482 8.09 26.1593 8.706C25.8367 9.30733 25.6753 10.048 25.6753 10.928C25.6753 12.2333 26.0053 13.2453 26.6653 13.964C27.34 14.668 28.1833 15.02 29.1953 15.02ZM43.9286 6.924H41.6846V17H39.1546V6.924H37.7246V4.878H39.1546V4.02C39.1546 2.62667 39.5213 1.61467 40.2546 0.983999C41.0026 0.338666 42.1686 0.0159997 43.7526 0.0159997V2.106C42.99 2.106 42.4546 2.25267 42.1466 2.546C41.8386 2.82467 41.6846 3.316 41.6846 4.02V4.878H43.9286V6.924ZM48.3073 3.272C47.8527 3.272 47.4713 3.118 47.1633 2.81C46.8553 2.502 46.7013 2.12067 46.7013 1.666C46.7013 1.21133 46.8553 0.829999 47.1633 0.522C47.4713 0.213999 47.8527 0.0599991 48.3073 0.0599991C48.7473 0.0599991 49.1213 0.213999 49.4293 0.522C49.7373 0.829999 49.8913 1.21133 49.8913 1.666C49.8913 2.12067 49.7373 2.502 49.4293 2.81C49.1213 3.118 48.7473 3.272 48.3073 3.272ZM49.5393 4.878V17H47.0313V4.878H49.5393ZM56.6381 6.924V13.634C56.6381 14.0887 56.7408 14.4187 56.9461 14.624C57.1661 14.8147 57.5328 14.91 58.0461 14.91H59.5861V17H57.6061C56.4768 17 55.6114 16.736 55.0101 16.208C54.4088 15.68 54.1081 14.822 54.1081 13.634V6.924H52.6781V4.878H54.1081V1.864H56.6381V4.878H59.5861V6.924H56.6381Z" fill="white"/>
</svg>
